<svg xmlns="http://www.w3.org/2000/svg" viewBox="0 0 85 85"><defs><style>.a{fill:none;}.b{fill:#ef4056;}.c{fill:#231f20;}</style></defs><rect class="a" width="85" height="85"/><path class="b" d="M42.14,30.69s-11.56-3.28-20,2.85-8.5,22.2-1.4,26.93,18.34,12,24.11,7.83S51,56.84,51,56.84s6.54,6.68,12.1,2.6,8.46-11.7,7.22-21.16-2.68-16.84-10-19S46.23,18.3,42.14,30.69Z"/><path class="c" d="M40.67,70.65c-6.68,0-15.35-5.79-20.51-9.24-3.4-2.27-5.51-7-5.63-12.59-.14-6.74,2.53-12.94,7-16.19A20.88,20.88,0,0,1,30.83,29l-1.19-.38c-8.35-2.72-10.09-4.3-10.67-5.25-1.36-2.2-1-3.75-.51-4.66,1.05-1.88,3.74-2.8,8.2-2.8h.15a9.38,9.38,0,0,1,5.88,2.17,11.21,11.21,0,0,1,.14-1.6,11.55,11.55,0,0,1,2.11-5.26A1.13,1.13,0,1,1,36.7,12.6a10,10,0,0,0-1.51,8,27.07,27.07,0,0,1,3.81,7,1.14,1.14,0,0,1,.17.43c.12.32.24.65.35,1,.76.11,1.4.23,1.89.34C45.12,19,51.23,15.42,60.57,18.18c7.92,2.35,9.54,10.08,10.82,20,1.26,9.63-1.54,17.73-7.67,22.22-4.13,3-9,1-11.94-1.29a16.42,16.42,0,0,1-6.23,10.16A8.17,8.17,0,0,1,40.67,70.65ZM34.93,31a20.35,20.35,0,0,0-12.08,3.5c-3.87,2.82-6.19,8.3-6.06,14.31.11,4.88,1.83,8.9,4.62,10.76,5.68,3.79,17.48,11.68,22.82,7.85s5.58-10.52,5.59-10.59a1.12,1.12,0,0,1,.72-1,1.13,1.13,0,0,1,1.21.26c.06.06,5.93,5.92,10.63,2.48,5.45-4,7.92-11.32,6.77-20.11-1.21-9.34-2.59-16.11-9.22-18.07C54,18.6,47.36,18.49,43.21,31a1.12,1.12,0,0,1-1.38.73h0A29.11,29.11,0,0,0,34.93,31ZM26.66,18.13c-4.79,0-5.95,1.15-6.23,1.64-.4.7,0,1.68.46,2.38.9,1.46,8.37,4.16,15.8,6.2a17.82,17.82,0,0,1-3.57-6.74c-1.89-2.27-4-3.47-6.32-3.48Z"/></svg>