<svg xmlns="http://www.w3.org/2000/svg" viewBox="0 0 85 85"><defs><style>.a{fill:none;}.b{fill:#231f20;}</style></defs><rect class="a" width="85" height="85"/><path class="b" d="M65.06,56.56l-1.35,0c-7-.19-15.92-1.81-25.1-4.57s-17.5-6.32-23.46-10a28.14,28.14,0,0,1-6.46-5.17c-1.44-1.67-2-3.15-1.6-4.4s1.64-2.18,3.76-2.78a28.31,28.31,0,0,1,8.24-.75c7,.19,15.93,1.81,25.1,4.57s17.51,6.32,23.46,10a27.92,27.92,0,0,1,6.46,5.17c1.44,1.67,2,3.15,1.6,4.39h0c-.37,1.25-1.63,2.18-3.76,2.79A25.68,25.68,0,0,1,65.06,56.56ZM17.78,30.88a24.4,24.4,0,0,0-6.37.69c-1.55.44-2.23,1-2.35,1.4s.14,1.23,1.19,2.46a26.69,26.69,0,0,0,6,4.76c5.8,3.62,14,7.1,23,9.8s17.72,4.31,24.56,4.49a26.69,26.69,0,0,0,7.62-.67c1.56-.44,2.24-1,2.35-1.4h0c.12-.38-.14-1.23-1.19-2.46a26.69,26.69,0,0,0-6-4.76c-5.8-3.62-14-7.1-23-9.81S25.87,31.08,19,30.9Z"/><path class="b" d="M52.8,77.79a6.14,6.14,0,0,1-3.64-1.61,28,28,0,0,1-5.4-6.32C39.88,64,36.11,55.75,33.17,46.63s-4.72-18-5-25a28,28,0,0,1,.68-8.28c.6-2.15,1.55-3.45,2.82-3.86s2.81.08,4.55,1.47a27.88,27.88,0,0,1,5.4,6.33c3.89,5.86,7.65,14.1,10.6,23.22s4.71,18,5,25a28,28,0,0,1-.67,8.28c-.61,2.15-1.56,3.45-2.83,3.86h0A3.09,3.09,0,0,1,52.8,77.79ZM32.57,11.39a1.23,1.23,0,0,0-.26,0c-.21.07-.92.44-1.48,2.45a26.28,26.28,0,0,0-.6,7.65c.27,6.85,2,15.54,4.9,24.48s6.56,17,10.35,22.72a26.45,26.45,0,0,0,5,5.85c1.64,1.3,2.43,1.19,2.63,1.12h0c.2-.07.91-.44,1.47-2.45a25.91,25.91,0,0,0,.6-7.65c-.27-6.84-2-15.54-4.89-24.48s-6.57-17-10.36-22.72a26.19,26.19,0,0,0-5-5.85A4.1,4.1,0,0,0,32.57,11.39Z"/><path class="b" d="M14.7,63.86h-.26c-2.26,0-3.79-.66-4.57-1.82h0c-.77-1.17-.73-2.82.11-4.92a27.18,27.18,0,0,1,4.56-7C19.09,44.73,26,38.85,34,33.56s16.1-9.36,22.84-11.45a27.06,27.06,0,0,1,8.23-1.46c2.26,0,3.79.65,4.57,1.82s.73,2.82-.11,4.91a26.85,26.85,0,0,1-4.56,7C60.4,39.78,53.49,45.66,45.51,51S29.41,60.3,22.67,62.39A27.75,27.75,0,0,1,14.7,63.86Zm-3.11-3c.36.55,1.41.87,2.89.9a25.71,25.71,0,0,0,7.58-1.37c6.56-2,14.48-6,22.31-11.2S59,38.31,63.38,33.06a25.45,25.45,0,0,0,4.22-6.44c.55-1.37.66-2.47.3-3s-1.41-.88-2.89-.9a25.39,25.39,0,0,0-7.58,1.37c-6.56,2-14.48,6-22.31,11.19s-14.58,10.93-19,16.17a25.65,25.65,0,0,0-4.22,6.45c-.55,1.37-.66,2.47-.3,3Z"/><path class="b" d="M41.63,44.66a3.6,3.6,0,0,1-1-.15,3.54,3.54,0,1,1,4.14-5.07,3.49,3.49,0,0,1,.27,2.7A3.55,3.55,0,0,1,41.63,44.66Zm0-5a1.46,1.46,0,0,0-.7.18,1.48,1.48,0,1,0,1.13-.12A1.59,1.59,0,0,0,41.63,39.64Z"/></svg>