<svg xmlns="http://www.w3.org/2000/svg" viewBox="0 0 85 85"><defs><style>.a{fill:none;}.b{fill:#06b9b1;}.c{fill:#231f20;}.d{fill:#fcb643;}</style></defs><rect class="a" width="85" height="85"/><path class="b" d="M30.14,35.82c-1.21-.14-8.25,2.59-15.14-.94S5.28,27.11,7.16,24.19s10.72,1.34,10.72,1.34-9.83-10-5-14S26.65,19,26.65,19s-5.26-9.56-1-10.81,7.22,7.3,7.29,13a73.48,73.48,0,0,0,1.58,12.61l-4.38,2Z"/><path class="c" d="M28.19,36A27.19,27.19,0,0,1,13.8,31.72,30.33,30.33,0,0,1,6.11,25,1.32,1.32,0,1,1,8.22,23.4a28.28,28.28,0,0,0,7,6.13,23.84,23.84,0,0,0,18.93,3,1.32,1.32,0,1,1,.64,2.56A27.22,27.22,0,0,1,28.19,36Z"/><path class="c" d="M32.39,35.74a1.36,1.36,0,0,1-.48-.09C14.39,28.69,10.5,14.57,10.34,14a1.32,1.32,0,1,1,2.56-.67c0,.13,3.75,13.45,20,19.89a1.32,1.32,0,0,1-.49,2.55Z"/><path class="c" d="M34.19,34.44a1.31,1.31,0,0,1-1.07-.56C20.37,16,23.4,9.3,23.79,8.6l2.32,1.26,0,0c0,.06-2.61,6.05,9.14,22.52A1.33,1.33,0,0,1,35,34.19,1.29,1.29,0,0,1,34.19,34.44Z"/><path class="d" d="M70.6,69.71a4.39,4.39,0,0,1-6,5.42c-7.65-3.48-18.86-9.66-27-18.8C24,41.12,33,34.17,33,34.17s11.15-9.53,23.53,7.61A108.63,108.63,0,0,1,70.6,69.71Z"/><path class="c" d="M32.24,50.66A1.32,1.32,0,0,1,32,48a21.64,21.64,0,0,0,7.18-3.29,20.7,20.7,0,0,0,5.87-5.64,1.32,1.32,0,0,1,2.26,1.36A22.56,22.56,0,0,1,40.65,47a23.46,23.46,0,0,1-8.18,3.69A.93.93,0,0,1,32.24,50.66Z"/><path class="c" d="M39.57,59.74a1.32,1.32,0,0,1-.29-2.61,27.64,27.64,0,0,0,8.06-3.67c4-2.68,6.31-7.75,6.33-7.8a1.32,1.32,0,0,1,2.42,1.06c-.11.24-2.61,5.84-7.29,9a29.94,29.94,0,0,1-8.93,4Z"/><path class="c" d="M47.18,66.78a1.32,1.32,0,0,1-.37-2.59s1.93-.56,5.1-1.55a5.18,5.18,0,0,0,3.32-2.71,1.32,1.32,0,0,1,2.47.94,7.83,7.83,0,0,1-5,4.29c-3.2,1-5.13,1.56-5.15,1.57A1.64,1.64,0,0,1,47.18,66.78Z"/><path class="c" d="M58,73.14a1.33,1.33,0,0,1-.46-2.57,10.14,10.14,0,0,0,5.33-4.74,1.32,1.32,0,0,1,2.41,1.1,12.71,12.71,0,0,1-6.83,6.12A1.2,1.2,0,0,1,58,73.14Z"/></svg>