<svg xmlns="http://www.w3.org/2000/svg" viewBox="0 0 85 85"><defs><style>.a{fill:none;}.b{fill:#06b9b1;}.c{fill:#231f20;}</style></defs><rect class="a" width="85" height="85"/><path class="b" d="M35.87,37.92l7.38-5.75a1.59,1.59,0,0,1,2.08.09C48.4,35.15,57.67,44,60.78,48.92c2.73,4.26,6.88,12.13,9,16.11a3.29,3.29,0,0,1-.91,4.13l-7,5.35a3.26,3.26,0,0,1-4.41-.39c-2.71-3-7.69-8.62-12.53-15.11a65.44,65.44,0,0,1-9.59-19.37A1.59,1.59,0,0,1,35.87,37.92Z"/><path class="c" d="M63.9,68.38a1.1,1.1,0,0,1-1-.6c-.06-.12-5.79-11.51-10.44-18.45a73.2,73.2,0,0,0-9.34-11.4,1.09,1.09,0,1,1,1.5-1.59A74.18,74.18,0,0,1,54.3,48.11C59,55.17,64.82,66.68,64.88,66.79a1.1,1.1,0,0,1-1,1.59Z"/><path class="c" d="M22.77,43.08a1.14,1.14,0,0,1-.41-.07,1.42,1.42,0,0,1-.89-.77l-7-15.69a1.41,1.41,0,0,1,.44-1.71l3.88-2.9a1.08,1.08,0,0,1,.82-.2,1.06,1.06,0,0,1,.72.44l2.6,3.62a56.14,56.14,0,0,1,5.82-7.94c5.12-6.08,10.17-7.69,15.42-4.9,4,2.13,5.84,8,5.92,8.19a1.1,1.1,0,0,1-1.73,1.18c-2.45-2-4.85-1.92-7.5-1.67A7.49,7.49,0,0,0,37,22.61l7.43,9.23a1.07,1.07,0,0,1,.23.86,1.09,1.09,0,0,1-.5.75L34.8,39.37a1.08,1.08,0,0,1-.94.11,1.06,1.06,0,0,1-.67-.68l-2.71-7.9-3.8,2.28c1.64,5.41,1.39,5.91,1.21,6.28s-.36.74-4.33,3.38l0,0A1.46,1.46,0,0,1,22.77,43.08ZM16.68,26.22l6.42,14.3c1.36-.93,2.31-1.63,2.72-2A56.7,56.7,0,0,0,24.34,33a1.09,1.09,0,0,1,.48-1.26l5.7-3.41a1.07,1.07,0,0,1,.94-.08,1.1,1.1,0,0,1,.66.67l2.69,7.87L42,32.25l-7.3-9a1.09,1.09,0,0,1,0-1.43c.11-.12,2.78-3,5.89-3.29a14.1,14.1,0,0,1,6.11.47,9.84,9.84,0,0,0-3.62-4.06c-2.91-1.54-7-2.44-12.73,4.38-5.47,6.5-6.23,8.94-6.24,9a1.06,1.06,0,0,1-.85.79,1.09,1.09,0,0,1-1.09-.45l-3-4.22Zm-.26-.57h0Z"/><path class="c" d="M37.46,32.25a.83.83,0,0,0-.38-1.12.84.84,0,1,0,.38,1.12Z"/></svg>