<svg width="18" height="20" viewBox="0 0 18 20" fill="none" xmlns="http://www.w3.org/2000/svg">
<path fill-rule="evenodd" clip-rule="evenodd" d="M14 2H4C2.89543 2 2 2.89543 2 4V16C2 17.1046 2.89543 18 4 18H14C15.1046 18 16 17.1046 16 16V4C16 2.89543 15.1046 2 14 2ZM4 0C1.79086 0 0 1.79086 0 4V16C0 18.2091 1.79086 20 4 20H14C16.2091 20 18 18.2091 18 16V4C18 1.79086 16.2091 0 14 0H4Z" fill="#1A1A1A"/>
<path fill-rule="evenodd" clip-rule="evenodd" d="M4 6C4 5.44772 4.44772 5 5 5H13C13.5523 5 14 5.44772 14 6C14 6.55228 13.5523 7 13 7H5C4.44772 7 4 6.55228 4 6Z" fill="#1A1A1A"/>
<path fill-rule="evenodd" clip-rule="evenodd" d="M4 10C4 9.44771 4.44772 9 5 9H13C13.5523 9 14 9.44771 14 10C14 10.5523 13.5523 11 13 11H5C4.44772 11 4 10.5523 4 10Z" fill="#1A1A1A"/>
<path fill-rule="evenodd" clip-rule="evenodd" d="M4 14C4 13.4477 4.44772 13 5 13H9C9.55229 13 10 13.4477 10 14C10 14.5523 9.55229 15 9 15H5C4.44772 15 4 14.5523 4 14Z" fill="#1A1A1A"/>
</svg>
