<svg xmlns="http://www.w3.org/2000/svg" viewBox="0 0 85 85"><defs><style>.a{fill:none;}.b{fill:#06b9b1;}.c{fill:#231f20;}</style></defs><rect class="a" width="85" height="85"/><path class="b" d="M15.94,47.13s4.44,11.2,8.16,17.36A117.28,117.28,0,0,0,35,79.65a1.94,1.94,0,0,0,2.58.31,2,2,0,0,0,.73-2.26c-1.43-4-5.57-15.41-7.93-19.76-2.89-5.32-10-13.8-10-13.8Z"/><path class="b" d="M58.19,28c-1.35,3.36,1.83,6,4.44,6.29s5.23-1.92,5.6-5.42-1.49-4.3-3.17-4.73S60.08,23.26,58.19,28Z"/><path class="b" d="M49.65,38.32c.16,2.84.87,4.85,4,4.39s4.07-2,4.17-4.39a4,4,0,0,0-4.14-4C51.83,34.57,49.52,35.89,49.65,38.32Z"/><path class="b" d="M51.39,17.61c-.78,3.85,3.2,4.93,5.65,4.05s5.08-2.3,3.76-6.54S56.66,12.69,55.34,13A5.89,5.89,0,0,0,51.39,17.61Z"/><path class="b" d="M40.53,41.4c2.8,1,5.63-.71,5.24-2.82s-1.69-4.69-4.5-4.25-2.72,2.19-2.85,4.25S40.53,41.4,40.53,41.4Z"/><path class="b" d="M30.24,32.32c-.48,2.35,2.42,2.83,3.77,2.32s4.87-3.14,1.82-5C31.11,26.74,30.24,32.32,30.24,32.32Z"/><path class="c" d="M47.05,49.08a24.87,24.87,0,0,1-4-.32c-10.64-1.78-15.77-5.6-17.7-13.2A9,9,0,0,1,26.44,28c2.11-3.13,6.06-4.68,8.79-5.06a6.63,6.63,0,0,1,5.2,1.73,3.92,3.92,0,0,0,2.46,1.14c1.71-.09,2-3,2.33-7,.16-2.26.64-9.13,9.67-10.09,7.83-.83,14.26,2.7,17.65,9.69C75,23.42,77.05,33.65,63,45l-.17.11A36.83,36.83,0,0,1,47.05,49.08Zm-11-24a3.44,3.44,0,0,0-.54,0c-1.84.25-5.45,1.4-7.27,4.1A7,7,0,0,0,27.47,35c1.73,6.79,6.05,9.92,15.94,11.57C52,48,60.75,43.67,61.69,43.19,71.17,35.52,74.33,27,70.57,19.28c-3-6.19-8.49-9.2-15.45-8.46-6.35.67-7.46,4.45-7.71,8.06C47.12,23,46.79,27.76,43,28a5.91,5.91,0,0,1-3.89-1.57A5,5,0,0,0,36.07,25ZM62.3,44.11Z"/><path class="c" d="M15.8,48.25a1.09,1.09,0,0,1-1-.68c-.64-1.6-1.08-4.61,1.36-5.79s4.39.63,5.1,1.74a1.09,1.09,0,0,1-.15,1.36,21.56,21.56,0,0,1-2,1.71,11.65,11.65,0,0,1-3,1.61A1.49,1.49,0,0,1,15.8,48.25Zm1.93-4.65a1.45,1.45,0,0,0-.62.15c-.65.32-.68,1.17-.57,1.89a8.29,8.29,0,0,0,1.23-.78c.41-.32.75-.6,1-.83A1.71,1.71,0,0,0,17.73,43.6Z"/><path class="c" d="M16.57,43.87c-1,0-5.83-.33-8.65-6.92-3-7.1,4.17-15.63,4.48-16a1.09,1.09,0,0,1,1.76,1.29c-1.57,2.54-2.07,4.64-1.49,6.23.18.5,1.13,1.17,2,1.81a12.89,12.89,0,0,1,4.14,4c1.91,3.44-.91,8.46-1.24,9a1.1,1.1,0,0,1-.88.55ZM10.39,28.5c-1,2.4-1.5,5.16-.46,7.58,1.93,4.5,4.86,5.39,6.1,5.56.77-1.55,1.87-4.53.9-6.27a11,11,0,0,0-3.47-3.29c-1.31-.91-2.43-1.7-2.85-2.85A6.14,6.14,0,0,1,10.39,28.5Z"/><path class="c" d="M30.47,68.53a1.09,1.09,0,0,1-.92-.49c0-.05-3.47-5.26-5.11-7.67a107.36,107.36,0,0,1-5.11-9.73,1.1,1.1,0,0,1,2-.93c0,.07,3.33,7.09,4.93,9.43s5.09,7.64,5.13,7.69a1.1,1.1,0,0,1-.31,1.52A1.13,1.13,0,0,1,30.47,68.53Z"/></svg>