<svg xmlns="http://www.w3.org/2000/svg" xmlns:xlink="http://www.w3.org/1999/xlink" viewBox="0 0 530 400"><defs><style>.a{fill:#fff;opacity:0;}.b{clip-path:url(#a);}.c{fill:#fefdfd;}.d{fill:#fbfafa;}.e{fill:#232223;}.f{fill:#2d2b22;}.g{fill:#0c0b0b;}.h{fill:#faf8f8;}.i{fill:#1e0a0c;}.j{fill:#f0eeee;}.k{fill:#7f8184;}.l{fill:#080605;}.m{fill:#707375;}.n{fill:#111c1c;}.o{fill:#05ebb5;}.p{fill:#080505;}.q{fill:#07e8b3;}.r{fill:#ffb736;}.s{fill:#fcfefd;}.t{fill:#ff4158;}</style><clipPath id="a"><rect class="a" width="530" height="400"/></clipPath></defs><rect class="a" width="530" height="400"/><g class="b"><path class="c" d="M244.92,67.32a13.72,13.72,0,0,1,2-10.93,9.3,9.3,0,0,1,8.56-4.53c1.65.08,3.29.43,4.93.66.44,1.14.86,2.29,1.34,3.41.21.51.53,1.1,1.21.84s.45-.86.26-1.41c-.44-1.32-.81-2.67-1.28-4-.11-.3-.48-.51-.72-.77.48-4.23,5.2-8.69,9.72-9.51,5.84-1.06,10.8.92,13.6,6.37a20,20,0,0,0-.14,2.31c.08,1.59.22,3.17.43,4.74,0,.3.5.55.77.82.24-.25.65-.47.69-.75a10.69,10.69,0,0,0,0-2.19c-.11-1.45-.28-2.91-.42-4.36.23-.2.46-.39.68-.61,3.44-3.33,7.45-3.91,11.76-2.19A15,15,0,0,1,308,59.41a18.21,18.21,0,0,1-4.31,12,20.85,20.85,0,0,1-1.61,1.5c.14-1,.19-2,.42-2.9a13.68,13.68,0,0,0-.27-7.1,4.69,4.69,0,0,0-.64-1.31.68.68,0,0,0-.64-.19,1,1,0,0,0-.51.65,3,3,0,0,0,.22,1.08,15.13,15.13,0,0,1,.3,7.5,10.6,10.6,0,0,1-4.2,6.74c-3.58,2.71-7.61,3.33-11.92,2.77-1.53-.19-1.56-.38-1.89-2-.25-1.2-.65-2.36-1-3.54a1.62,1.62,0,0,0-.44-.79,4.24,4.24,0,0,0-1.08-.41,5.71,5.71,0,0,0-.21,1.14c0,.22.21.43.32.66a11.17,11.17,0,0,1,.69,7C279.64,90,272,94.27,265,91c-1-.47-2-1-3-1.46-.49-.24-1.08-.6-1.43.11s.24,1.06.74,1.27c2,.88,4.09,1.7,6.14,2.53a10.35,10.35,0,0,0,1.21.35,7,7,0,0,1-.24.85,7.72,7.72,0,0,1-3.87,3.81c-.61.29-1.3.51-1.08,1.43a16.54,16.54,0,0,1-14.69-3.77,16.93,16.93,0,0,1-6.5-15.53,36.84,36.84,0,0,1,.82-4.9,8.18,8.18,0,0,1,2.67-4.35c1.11,1,2.18,1.94,3.33,2.83a6.2,6.2,0,0,0,1.8.85.86.86,0,0,0,.72-.38,1,1,0,0,0-.16-.81,2.45,2.45,0,0,0-.76-.5,13.89,13.89,0,0,1-4.14-3.83Z"/><path class="c" d="M301.09,75.19c5,7.63,10,15.28,15,22.88,1.26,1.9,2.75,3.63,4.14,5.44-9.12-1.09-17.2,1.24-24.07,7.4a42.2,42.2,0,0,0-9,11.4,36,36,0,0,0-1.81,4.81c-1.26-1.5-2.62-2.93-3.79-4.51a166,166,0,0,1-14.15-24l3.48-4.9c6.88-1,10.76-5.36,12.18-12.25.76.13,1.36.25,2,.33a16,16,0,0,0,11.8-2.58A40.24,40.24,0,0,0,301.09,75.19Z"/><path class="d" d="M321.73,105.32a23.45,23.45,0,0,1,5.66,7,4.93,4.93,0,0,1,.35,1.42l-1.29,0a33.22,33.22,0,0,0-12.55,2.66c-8,3.6-13.46,9.73-17,17.66a20.62,20.62,0,0,0-.9,3.56,24,24,0,0,1-2.27-1.56,40.27,40.27,0,0,1-6.92-7.13,12.22,12.22,0,0,1,1.92-6.29,45.37,45.37,0,0,1,7.85-10,27.4,27.4,0,0,1,13.54-7.21A31,31,0,0,1,321.73,105.32Z"/><path class="c" d="M328.13,115.34c.6,5.47-.2,10.62-3.7,15-6.29,8-16.75,11.73-26.81,7.81a18.27,18.27,0,0,1,.76-3.57A32.62,32.62,0,0,1,309.05,121,29.93,29.93,0,0,1,328.13,115.34Z"/><path class="e" d="M301.09,75.19a40.24,40.24,0,0,1-4.24,4,16,16,0,0,1-11.8,2.58c-.6-.08-1.2-.2-2-.33-1.42,6.89-5.3,11.28-12.18,12.25l-3.48,4.9c-.63.37-1.24.77-1.88,1.11a1.94,1.94,0,0,1-2.06.13c-.22-.92.47-1.14,1.08-1.43a7.72,7.72,0,0,0,3.87-3.81,7,7,0,0,0,.24-.85,10.35,10.35,0,0,1-1.21-.35c-2.05-.83-4.11-1.65-6.14-2.53-.5-.21-1.07-.59-.74-1.27s.94-.35,1.43-.11c1,.48,2,1,3,1.46,7,3.3,14.63-1,16.22-8.66a11.17,11.17,0,0,0-.69-7c-.11-.23-.32-.44-.32-.66a5.71,5.71,0,0,1,.21-1.14,4.24,4.24,0,0,1,1.08.41,1.62,1.62,0,0,1,.44.79c.36,1.18.76,2.34,1,3.54.33,1.61.36,1.8,1.89,2,4.31.56,8.34-.06,11.92-2.77a10.6,10.6,0,0,0,4.2-6.74,15.13,15.13,0,0,0-.3-7.5,3,3,0,0,1-.22-1.08,1,1,0,0,1,.51-.65.68.68,0,0,1,.64.19,4.69,4.69,0,0,1,.64,1.31,13.68,13.68,0,0,1,.27,7.1c-.23.94-.28,1.93-.42,2.9C301.76,73.7,301.42,74.44,301.09,75.19Z"/><path class="e" d="M321.73,105.32a31,31,0,0,0-11.59.09,27.4,27.4,0,0,0-13.54,7.21,45.37,45.37,0,0,0-7.85,10,12.22,12.22,0,0,0-1.92,6.29c-.49-.6-1-1.21-1.45-1.81a34.67,34.67,0,0,1,1.8-4.81,42.2,42.2,0,0,1,9-11.4c6.87-6.16,14.95-8.49,24.07-7.4Z"/><path class="e" d="M328.13,115.34A29.93,29.93,0,0,0,309.05,121a32.62,32.62,0,0,0-10.67,13.62,18.27,18.27,0,0,0-.76,3.57l-1.6-.57a20.62,20.62,0,0,1,.9-3.56c3.52-7.93,8.94-14.06,17-17.66a33.22,33.22,0,0,1,12.55-2.66l1.29,0Z"/><path class="e" d="M244.92,67.32l1.66,2.15a13.89,13.89,0,0,0,4.14,3.83,2.45,2.45,0,0,1,.76.5,1,1,0,0,1,.16.81.86.86,0,0,1-.72.38,6.2,6.2,0,0,1-1.8-.85c-1.15-.89-2.22-1.88-3.33-2.83-.54-.87-1.12-1.72-1.61-2.62S244,67.41,244.92,67.32Z"/><path class="f" d="M285.9,48c.14,1.45.31,2.91.42,4.36a10.69,10.69,0,0,1,0,2.19c0,.28-.45.5-.69.75-.27-.27-.73-.52-.77-.82-.21-1.57-.35-3.15-.43-4.74a20,20,0,0,1,.14-2.31Z"/><path class="f" d="M261.25,50.61c.24.26.61.47.72.77.47,1.31.84,2.66,1.28,4,.19.55.44,1.14-.26,1.41s-1-.33-1.21-.84c-.48-1.12-.9-2.27-1.34-3.41C260.53,51.81,260.3,51,261.25,50.61Z"/><path class="g" d="M141.63,265.25a7.82,7.82,0,0,1,1.18,1.34c2.85,5.1,4.47,10.46,3.34,16.38-.7-.24-1.41-.45-2.1-.7-2.12-.76-2.18-.82-3.64.92a26.4,26.4,0,0,1-5.53,4.86,3.05,3.05,0,0,0-1.16,1.15c-.7,1.62-1.27,3.29-1.92,5l3.35,1.49-1.73.89a9.37,9.37,0,0,0-5.6-1.25,23.4,23.4,0,0,1-4.94-.18c-1.27-.14-2.37-.16-3.3.93a7.77,7.77,0,0,1-1.64,1.15l-2.62-.8c1.24-.45,2.63-.61,3.58-1.82-1-1.08-2-2.09-2.88-3.16a9.11,9.11,0,0,0-3.55-2.56,29.87,29.87,0,0,1-8.34-5c-.55-.47-1.14-.89-1.72-1.34a10.68,10.68,0,0,1-1.28,1.26,1.49,1.49,0,0,0-.56,1.92c.31,1,.52,2,.77,3l-2.16-2.22a2.88,2.88,0,0,0-1.93-3,5,5,0,0,1-.64-.36,21,21,0,0,1-4.12-9.44c-.09-.41-.16-.83-.24-1.24a14.61,14.61,0,0,1,.8-2.22,3.53,3.53,0,0,0,.18-3c-.32-1-.49-2.11-.72-3.16l1.23-2.92c.09.73.16,1.46.29,2.19.25,1.45.51,2.9.84,4.34.1.44.39,1.1.72,1.19,1.17.29,2.52.8,3.55.46,2.91-.95,5.69-2.28,8.62-3.51v-9.42c-.52-.31-1.19-.74-1.89-1.1-1.64-.85-3.29-1.67-4.94-2.49l1.64-.84c2.11,1.12,4.2,2.28,6.33,3.35a3.87,3.87,0,0,0,1.74.37q3.85-.08,7.71-.28a2.76,2.76,0,0,0,1.48-.52c1.5-1.17,2.93-2.42,4.38-3.64l1.85.51-4.71,3.75c1.41,2.48,2.72,4.69,3.94,7A2.61,2.61,0,0,0,127.2,264,46.51,46.51,0,0,1,138.7,268a4.11,4.11,0,0,0,.94.21Zm-8.45,22c3.18-1.56,5.21-4.08,7.42-6.39a1.55,1.55,0,0,0,.28-1.17c-.62-3-1.26-6-2-9a2.38,2.38,0,0,0-1.06-1.4,40.07,40.07,0,0,0-11.78-3.88l-6.28,6.77c.91,3,1.8,6.05,2.83,9.08a3.12,3.12,0,0,0,1.44,1.54C127.05,284.31,130.12,285.75,133.18,287.24ZM99.35,271c1,3.11,2,6,3,8.81a4.07,4.07,0,0,0,1.17,1.62,42.88,42.88,0,0,0,3.91,3.1,27.61,27.61,0,0,0,6.53,3.38c2.19-1.61,4.22-3.1,6.27-4.59.69-.5,1.18-1,.85-2-.84-2.51-1.64-5-2.35-7.59a3.19,3.19,0,0,0-2.19-2.24,17.94,17.94,0,0,1-3.07-1.67,38.46,38.46,0,0,1-3.1-2.32,1.49,1.49,0,0,0-1.69-.27C105.64,268.45,102.61,269.66,99.35,271Z"/><path class="h" d="M100.93,252.87c1.65.82,3.3,1.64,4.94,2.49.7.36,1.37.79,1.89,1.1v9.42c-2.93,1.23-5.71,2.56-8.62,3.51-1,.34-2.38-.17-3.55-.46-.33-.09-.62-.75-.72-1.19-.33-1.44-.59-2.89-.84-4.34-.13-.73-.2-1.46-.29-2.19a20,20,0,0,1,5.61-7.44A9.79,9.79,0,0,1,100.93,252.87Z"/><path class="h" d="M141.63,265.25l-2,2.92a4.11,4.11,0,0,1-.94-.21A46.51,46.51,0,0,0,127.2,264a2.61,2.61,0,0,1-1.91-1.51c-1.22-2.27-2.53-4.48-3.94-7l4.71-3.75a37.85,37.85,0,0,1,5,2.59,43.77,43.77,0,0,1,9.58,9.1A12.23,12.23,0,0,1,141.63,265.25Z"/><path class="h" d="M101.34,288.75c-.25-1-.46-2-.77-3a1.49,1.49,0,0,1,.56-1.92,10.68,10.68,0,0,0,1.28-1.26c.58.45,1.17.87,1.72,1.34a29.87,29.87,0,0,0,8.34,5,9.11,9.11,0,0,1,3.55,2.56c.92,1.07,1.89,2.08,2.88,3.16-1,1.21-2.34,1.37-3.58,1.82A29.69,29.69,0,0,1,101.34,288.75Z"/><path class="h" d="M135.15,295.71l-3.35-1.49c.65-1.73,1.22-3.4,1.92-5a3.05,3.05,0,0,1,1.16-1.15,26.4,26.4,0,0,0,5.53-4.86c1.46-1.74,1.52-1.68,3.64-.92.69.25,1.4.46,2.1.7a15.24,15.24,0,0,1-.67,2.64A18.31,18.31,0,0,1,135.15,295.71Z"/><path class="h" d="M124.21,251.31c-1.45,1.22-2.88,2.47-4.38,3.64a2.76,2.76,0,0,1-1.48.52q-3.85.21-7.71.28a3.87,3.87,0,0,1-1.74-.37c-2.13-1.07-4.22-2.23-6.33-3.35a10.83,10.83,0,0,1,2-.91,76.37,76.37,0,0,1,8.67-1.72A22.35,22.35,0,0,1,124.21,251.31Z"/><path class="i" d="M76.21,250.16c-.63.34-1,.7-1.27.67a4.89,4.89,0,0,1-1.55-.56,44.94,44.94,0,0,1-10.33-7.07c-3.13-2.78-6-5.79-9-8.7a2.62,2.62,0,0,1-.69-.85,3.5,3.5,0,0,1,0-1.17c.39,0,.87-.06,1.13.13a8.86,8.86,0,0,1,1.43,1.44,70.5,70.5,0,0,0,12.33,11.08c2.06,1.45,4.3,2.62,6.46,3.93C75.08,249.34,75.49,249.66,76.21,250.16Z"/><path class="j" d="M117.94,297.25a7.77,7.77,0,0,0,1.64-1.15c.93-1.09,2-1.07,3.3-.93a23.4,23.4,0,0,0,4.94.18,9.37,9.37,0,0,1,5.6,1.25,3.8,3.8,0,0,1-.85.67A19.44,19.44,0,0,1,117.94,297.25Z"/><path class="i" d="M76.61,240.15a4.42,4.42,0,0,1-1,.52c-.17,0-.45-.16-.63-.32-1.28-1.15-2.58-2.28-3.82-3.48-.23-.23-.2-.73-.29-1.1.44,0,1-.23,1.3,0,1.38,1.13,2.67,2.36,4,3.57A3.61,3.61,0,0,1,76.61,240.15Z"/><path class="j" d="M92.51,264.13c.23,1.05.4,2.13.72,3.16a3.53,3.53,0,0,1-.18,3,14.61,14.61,0,0,0-.8,2.22A14.28,14.28,0,0,1,92.51,264.13Z"/><path class="j" d="M96.61,283.15a5,5,0,0,0,.64.36,2.88,2.88,0,0,1,1.93,3A7,7,0,0,1,96.61,283.15Z"/><path class="d" d="M133.18,287.24c-3.06-1.49-6.13-2.93-9.14-4.48a3.12,3.12,0,0,1-1.44-1.54c-1-3-1.92-6.1-2.83-9.08l6.28-6.77a40.07,40.07,0,0,1,11.78,3.88,2.38,2.38,0,0,1,1.06,1.4c.73,3,1.37,6,2,9a1.55,1.55,0,0,1-.28,1.17C138.39,283.16,136.36,285.68,133.18,287.24Z"/><path class="d" d="M99.35,271c3.26-1.31,6.29-2.52,9.3-3.75a1.49,1.49,0,0,1,1.69.27,38.46,38.46,0,0,0,3.1,2.32,17.94,17.94,0,0,0,3.07,1.67,3.19,3.19,0,0,1,2.19,2.24c.71,2.55,1.51,5.08,2.35,7.59.33,1-.16,1.48-.85,2-2,1.49-4.08,3-6.27,4.59a27.61,27.61,0,0,1-6.53-3.38,42.88,42.88,0,0,1-3.91-3.1,4.07,4.07,0,0,1-1.17-1.62C101.31,277,100.39,274.08,99.35,271Z"/><path class="k" d="M259.23,227.3c-.24.38-.47.77-.7,1.16l-1.87-2.09c-1,2.74-2,5.24-2.92,7.74l-.55,1.16,0,0-.36.3a25.51,25.51,0,0,1-15.73,10.55c-5.16,1.18-10.29.94-15.06-1.79a15.38,15.38,0,0,0-1.86-.81c-.77-.78-1.49-1.61-2.31-2.32-3.58-3.06-6.83-6.38-8.36-11a34.34,34.34,0,0,1-1.1-4.82c-.15-.79-.41-1.27-1.28-1.17a22.31,22.31,0,0,1,3.55-15.64c4.16-6.1,9.7-10.22,16.92-11.52,6.32-1.13,12.5-.45,17.92,3.65a31,31,0,0,1,7.54,7.52,7.13,7.13,0,0,0,.75.81l.83,1.92.12.49a18.68,18.68,0,0,1,2.06,8.66C256.74,222.88,257.25,225.29,259.23,227.3Zm-18.62,10.1c5.15-2.24,7.77-6,8.87-11.2-.91-.21-1.62-.41-2.34-.55-2.84-.54-5.69-1-8.54-1.6-.68-.13-1.34-.37-1.77.44s-1.29,1.41-.71,2.64c1.17,2.44,2.15,5,3.21,7.47C239.71,235.49,240.13,236.37,240.61,237.4Zm-26.72-16.6c.18,5.57,2.66,9.67,6.54,13.28.42-.53.74-.89,1-1.28,1.57-2.21,3-4.51,4.72-6.63.94-1.18.5-2.13.11-3.23s-1.32-.92-2.15-1l-1.47-.18Zm29.47-12c-2.27,3.13-4.36,6-6.43,8.9a1.16,1.16,0,0,0,.45,1.83A5.64,5.64,0,0,0,239,220c3,.57,6,1.13,9.07,1.68.4.07.81.08,1.47.15A18.84,18.84,0,0,0,243.36,208.85Zm-28.82,7.78a12.33,12.33,0,0,0,1.57.37c3.17.37,6.35.73,9.52,1.06,1.42.14,2.08-.84,1.54-2.23q-1.48-3.87-3-7.73c-.24-.6-.58-1.16-.86-1.72C219.7,207.78,215.71,212.15,214.54,216.63Zm22,21.85c-1.09-2.59-2.14-5.08-3.18-7.57-.31-.74-.58-1.5-.94-2.21a1.68,1.68,0,0,0-3-.26c-1.62,2.26-3.2,4.53-4.78,6.81a12.63,12.63,0,0,0-.68,1.25C226.71,238.71,232.87,239.72,236.57,238.48Zm-9.37-33.54c1.27,3.23,2.42,6.26,3.66,9.26.79,1.94,2.13,2.15,3.39.46,1.83-2.46,3.52-5,5.26-7.56a3.92,3.92,0,0,0,.3-.88A19.83,19.83,0,0,0,227.2,204.94Zm-3.84-5.13c-1.15.68-2.27,1.28-3.32,2-.42.28-.66.86-.15,1.25a1.39,1.39,0,0,0,1.13,0,23.91,23.91,0,0,0,2.74-1.45c.31-.19.48-.61.72-.92Zm8.22,23.87c.11,0,.36,0,.47-.06a10.9,10.9,0,0,0,.92-1c-.32-.22-.63-.59-1-.62a2,2,0,0,1-1.54-.84,1,1,0,0,0-.94-.16,1.17,1.17,0,0,0-.33.95A2.34,2.34,0,0,0,231.58,223.68Z"/><path class="l" d="M258.76,190a6.2,6.2,0,0,1,.26-1.24,34.54,34.54,0,0,1,6.49-10.11,2.82,2.82,0,0,1,.6-.39l6.54,9.72c-.44.73-.87,1.47-1.32,2.19a26.71,26.71,0,0,0-3.16,8.16c-.18.77-.4,1.54-.61,2.3-.57-.62-1.19-1.22-1.73-1.88C263.46,195.79,261.12,192.87,258.76,190Zm9.82,2.47a1.39,1.39,0,0,0-1.17-1.53,1,1,0,0,0-.76.55c-.18.53.54,1.36,1.17,1.36C268.1,192.8,268.39,192.52,268.58,192.42Zm1.26-3c0-.83-.67-1.56-1.26-1.46-.26,0-.47.43-.7.65a16.26,16.26,0,0,0,1.34,1.29S269.68,189.57,269.84,189.45Zm-9.06-.9c-.14.16-.57.51-.51.63a6.07,6.07,0,0,0,1,1.38A1.44,1.44,0,0,0,262,190C262.2,189.47,261.54,188.64,260.78,188.55Zm2-3.11c-.37.48-.72.74-.73,1a.88.88,0,0,0,1,1c.26,0,.71-.53.67-.63A8.46,8.46,0,0,0,262.73,185.44Zm3.2-2.08a9.68,9.68,0,0,0-1.33-1,1.16,1.16,0,0,0-.56.69.88.88,0,0,0,1,1C265.27,184.07,265.5,183.72,265.93,183.36Zm1.66,12.69-1.2-1.21c-.26.28-.71.54-.73.84a.91.91,0,0,0,1,1C266.91,196.72,267.16,196.38,267.59,196.05Z"/><path class="g" d="M267,202.67q-1.32,6-2.62,12.07c-.87-1-1.72-2.08-2.61-3.1-2.2-2.55-4.42-5.08-6.64-7.62.63-3,1.22-6,1.89-9,.27-1.18.71-2.32,1.08-3.48ZM265,203.94c.06-.9-.5-1.63-1.14-1.54-.25,0-.68.58-.64.65a6.32,6.32,0,0,0,1.11,1.31C264.43,204.41,264.87,204.05,265,203.94Zm-6.66-8.18c-.88.75-.65,1.37,0,1.9a.86.86,0,0,0,.8-.08C259.69,196.75,259.23,196.24,258.38,195.76Zm.06,6.89c-.52-.4-.84-.8-1.24-.9-.2,0-.53.46-.81.71a4.05,4.05,0,0,0,1,.85C257.57,203.39,257.94,203,258.44,202.65Zm6,7.76a8.27,8.27,0,0,0-1.45-.9c-.12,0-.61.45-.61.68a.9.9,0,0,0,1.06.95C263.7,211.11,263.94,210.78,264.42,210.41ZM257.88,201c.35-.49.66-.74.71-1a.87.87,0,0,0-1.06-.9c-.25.1-.6.57-.54.75A5.1,5.1,0,0,0,257.88,201Zm5.58,4.72a6.54,6.54,0,0,0-.76.95,3.58,3.58,0,0,0,1,.85c.09,0,.61-.43.58-.5A8.93,8.93,0,0,0,263.46,205.69Z"/><path class="g" d="M267.18,177.31c.09-.22.12-.51.28-.66a31.21,31.21,0,0,1,9.27-6.28l5,10.1c-.15.25-.18.41-.27.46a30.52,30.52,0,0,0-7.84,5.79Zm10.77.94c-.12.19-.42.44-.44.72-.06.64.7,1.46,1.18,1.3a1.1,1.1,0,0,0,.64-.71C279.43,179,278.67,178.22,278,178.25Zm-.79,2.83a13.93,13.93,0,0,0-1.55-1.32c-.11-.07-.51.33-.78.51a13.8,13.8,0,0,0,1.23,1.41C276.13,181.75,276.58,181.4,277.16,181.08Zm-5.76-3.71-1.17-1.13c-.22.25-.57.48-.62.75-.1.6.18,1.12.86,1.1C270.73,178.08,271,177.71,271.4,177.37Zm1.8,3.82c-.24.36-.5.59-.47.74a4.66,4.66,0,0,0,.58,1.4c.07.11.53,0,.81-.08a10.48,10.48,0,0,0-.21-1.49C273.86,181.58,273.56,181.47,273.2,181.19Zm0-7.33c-.45.48-.9.84-.85.93a7.6,7.6,0,0,0,.9,1.17c.21-.18.61-.4.58-.53A9.08,9.08,0,0,0,273.23,173.86Zm3.9.11a10.51,10.51,0,0,0-1.3-1.11c-.08,0-.69.52-.64.61a2.47,2.47,0,0,0,.82,1C276.16,174.57,276.56,174.24,277.13,174Z"/><path class="g" d="M259.23,227.3c-2-2-2.49-4.42-2.38-7.2a18.68,18.68,0,0,0-2.06-8.66c.3,0,.6,0,.9,0,.58-.05.93-.39.8-1a1.45,1.45,0,0,0-.69-.93c-.57-.25-.86.22-1,.72a5.26,5.26,0,0,0-.12.71l-.83-1.92c.28-1.06.56-2.11.85-3.17.63.67,1.29,1.31,1.89,2q3.63,4.29,7.24,8.62a21.4,21.4,0,0,1-2.45,7C260.71,224.81,260,226,259.23,227.3Zm1.24-4.48a17.78,17.78,0,0,0-1.46-1.21c-.05,0-.61.42-.61.65a1.06,1.06,0,0,0,1.16,1.15C259.79,223.41,260,223.12,260.47,222.82Zm-.3-5.19,1.41.92c.17-.28.54-.68.46-.82a2.44,2.44,0,0,0-1-.86C261,216.81,260.61,217.25,260.17,217.63Zm.19,1.17c-.38.49-.78.85-.72,1a2.56,2.56,0,0,0,.88,1c.1.07.75-.43.72-.5A11.47,11.47,0,0,0,260.36,218.8Z"/><path class="i" d="M207.16,224.21c.87-.1,1.13.38,1.28,1.17a34.34,34.34,0,0,0,1.1,4.82c1.53,4.59,4.78,7.91,8.36,11,.82.71,1.54,1.54,2.31,2.32a.89.89,0,0,1-1.49.4c-5.74-4.48-10.64-9.54-11.68-17.2C206.93,225.88,206.48,225,207.16,224.21Z"/><path class="m" d="M267,202.67l-8.9-11.12c.23-.54.45-1.07.68-1.6,2.36,2.92,4.7,5.84,7.07,8.75.54.66,1.16,1.26,1.73,1.88C267.37,201.28,267.17,202,267,202.67Z"/><path class="m" d="M263.82,216.5q-3.61-4.32-7.24-8.62c-.6-.71-1.26-1.35-1.89-2l.42-1.84c2.22,2.54,4.44,5.07,6.64,7.62.89,1,1.74,2.06,2.61,3.1Z"/><path class="m" d="M267.18,177.31l6.45,9.41-1,1.21-6.54-9.72Z"/><path class="i" d="M253.74,234.11c.94-2.5,1.88-5,2.92-7.74l1.87,2.09a16.29,16.29,0,0,1-4.22,5.71Z"/><path class="f" d="M253.74,234.11l.57.06-1.12,1.1Z"/><path class="f" d="M252.86,235.54l.36-.3Z"/><path class="l" d="M240.61,237.4c-.48-1-.9-1.91-1.28-2.8-1.06-2.49-2-5-3.21-7.47-.58-1.23.28-1.82.71-2.64s1.09-.57,1.77-.44c2.85.56,5.7,1.06,8.54,1.6.72.14,1.43.34,2.34.55C248.38,231.38,245.76,235.16,240.61,237.4Z"/><path class="l" d="M213.89,220.8l8.76.94,1.47.18c.83.1,1.76-.09,2.15,1s.83,2.05-.11,3.23c-1.69,2.12-3.15,4.42-4.72,6.63-.27.39-.59.75-1,1.28C216.55,230.47,214.07,226.37,213.89,220.8Z"/><path class="l" d="M243.36,208.85a18.84,18.84,0,0,1,6.14,13c-.66-.07-1.07-.08-1.47-.15-3-.55-6.05-1.11-9.07-1.68a5.64,5.64,0,0,1-1.58-.46,1.16,1.16,0,0,1-.45-1.83C239,214.86,241.09,212,243.36,208.85Z"/><path class="l" d="M214.54,216.63c1.17-4.48,5.16-8.85,8.76-10.25.28.56.62,1.12.86,1.72q1.53,3.85,3,7.73c.54,1.39-.12,2.37-1.54,2.23-3.17-.33-6.35-.69-9.52-1.06A12.33,12.33,0,0,1,214.54,216.63Z"/><path class="l" d="M236.57,238.48c-3.7,1.24-9.86.23-12.62-2a12.63,12.63,0,0,1,.68-1.25c1.58-2.28,3.16-4.55,4.78-6.81a1.68,1.68,0,0,1,3,.26c.36.71.63,1.47.94,2.21C234.43,233.4,235.48,235.89,236.57,238.48Z"/><path class="l" d="M227.2,204.94a19.83,19.83,0,0,1,12.61,1.28,3.92,3.92,0,0,1-.3.88c-1.74,2.53-3.43,5.1-5.26,7.56-1.26,1.69-2.6,1.48-3.39-.46C229.62,211.2,228.47,208.17,227.2,204.94Z"/><path class="j" d="M223.36,199.81l1.12.85c-.24.31-.41.73-.72.92A23.91,23.91,0,0,1,221,203a1.39,1.39,0,0,1-1.13,0c-.51-.39-.27-1,.15-1.25C221.09,201.09,222.21,200.49,223.36,199.81Z"/><path class="n" d="M231.58,223.68a2.34,2.34,0,0,1-2.4-1.73,1.17,1.17,0,0,1,.33-.95,1,1,0,0,1,.94.16A2,2,0,0,0,232,222c.35,0,.66.4,1,.62a10.9,10.9,0,0,1-.92,1C231.94,223.72,231.69,223.67,231.58,223.68Z"/><path class="m" d="M254.67,211a5.26,5.26,0,0,1,.12-.71c.15-.5.44-1,1-.72a1.45,1.45,0,0,1,.69.93c.13.56-.22.9-.8,1-.3,0-.6,0-.9,0Z"/><path class="m" d="M268.58,192.42c-.19.1-.48.38-.76.38-.63,0-1.35-.83-1.17-1.36a1,1,0,0,1,.76-.55A1.39,1.39,0,0,1,268.58,192.42Z"/><path class="m" d="M269.84,189.45c-.16.12-.57.53-.62.48a16.26,16.26,0,0,1-1.34-1.29c.23-.22.44-.6.7-.65C269.17,187.89,269.83,188.62,269.84,189.45Z"/><path class="m" d="M260.78,188.55c.76.09,1.42.92,1.22,1.48a1.44,1.44,0,0,1-.75.53,6.07,6.07,0,0,1-1-1.38C260.21,189.06,260.64,188.71,260.78,188.55Z"/><path class="m" d="M262.73,185.44a8.46,8.46,0,0,1,1,1.35c0,.1-.41.6-.67.63a.88.88,0,0,1-1-1C262,186.18,262.36,185.92,262.73,185.44Z"/><path class="m" d="M265.93,183.36c-.43.36-.66.71-.91.73a.88.88,0,0,1-1-1,1.16,1.16,0,0,1,.56-.69A9.68,9.68,0,0,1,265.93,183.36Z"/><path class="m" d="M267.59,196.05c-.43.33-.68.67-.94.68a.91.91,0,0,1-1-1c0-.3.47-.56.73-.84Z"/><path class="m" d="M265,203.94c-.17.11-.61.47-.67.42a6.32,6.32,0,0,1-1.11-1.31c0-.07.39-.61.64-.65C264.54,202.31,265.1,203,265,203.94Z"/><path class="m" d="M258.38,195.76c.85.48,1.31,1,.8,1.82a.86.86,0,0,1-.8.08C257.73,197.13,257.5,196.51,258.38,195.76Z"/><path class="m" d="M258.44,202.65c-.5.34-.87.74-1,.66a4.05,4.05,0,0,1-1-.85c.28-.25.61-.75.81-.71C257.6,201.85,257.92,202.25,258.44,202.65Z"/><path class="m" d="M264.42,210.41c-.48.37-.72.7-1,.73a.9.9,0,0,1-1.06-.95c0-.23.49-.72.61-.68A8.27,8.27,0,0,1,264.42,210.41Z"/><path class="m" d="M257.88,201a5.1,5.1,0,0,1-.89-1.18c-.06-.18.29-.65.54-.75a.87.87,0,0,1,1.06.9C258.54,200.23,258.23,200.48,257.88,201Z"/><path class="m" d="M263.46,205.69a8.93,8.93,0,0,1,.83,1.3c0,.07-.49.54-.58.5a3.58,3.58,0,0,1-1-.85A6.54,6.54,0,0,1,263.46,205.69Z"/><path class="m" d="M278,178.25c.72,0,1.48.72,1.38,1.31a1.1,1.1,0,0,1-.64.71c-.48.16-1.24-.66-1.18-1.3C277.53,178.69,277.83,178.44,278,178.25Z"/><path class="m" d="M277.16,181.08c-.58.32-1,.67-1.1.6a13.8,13.8,0,0,1-1.23-1.41c.27-.18.67-.58.78-.51A13.93,13.93,0,0,1,277.16,181.08Z"/><path class="m" d="M271.4,177.37c-.42.34-.67.71-.93.72-.68,0-1-.5-.86-1.1.05-.27.4-.5.62-.75Z"/><path class="m" d="M273.2,181.19c.36.28.66.39.71.57a10.48,10.48,0,0,1,.21,1.49c-.28,0-.74.19-.81.08a4.66,4.66,0,0,1-.58-1.4C272.7,181.78,273,181.55,273.2,181.19Z"/><path class="m" d="M273.23,173.86a9.08,9.08,0,0,1,.63,1.57c0,.13-.37.35-.58.53a7.6,7.6,0,0,1-.9-1.17C272.33,174.7,272.78,174.34,273.23,173.86Z"/><path class="m" d="M277.13,174c-.57.27-1,.6-1.12.51a2.47,2.47,0,0,1-.82-1c-.05-.09.56-.65.64-.61A10.51,10.51,0,0,1,277.13,174Z"/><path class="m" d="M260.47,222.82c-.45.3-.68.59-.91.59a1.06,1.06,0,0,1-1.16-1.15c0-.23.56-.68.61-.65A17.78,17.78,0,0,1,260.47,222.82Z"/><path class="m" d="M260.17,217.63c.44-.38.79-.82.9-.76a2.44,2.44,0,0,1,1,.86c.08.14-.29.54-.46.82Z"/><path class="m" d="M260.36,218.8a11.47,11.47,0,0,1,.88,1.46c0,.07-.62.57-.72.5a2.56,2.56,0,0,1-.88-1C259.58,219.65,260,219.29,260.36,218.8Z"/><path class="o" d="M144.08,38.3a25.33,25.33,0,0,1,8.81.33c1.08.26,2.19.38,3.28.54,8.1,1.17,16.74,8.81,18,17.85a21.63,21.63,0,0,1-.14,9A9.06,9.06,0,0,1,170,71.5a13.67,13.67,0,0,1-9,2.07c-.92-.11-1.83-.27-2.75-.38A5.39,5.39,0,0,0,152.24,77a12.61,12.61,0,0,0-.42,2.73c-.17,2.4-.14,4.82-.47,7.19a22.74,22.74,0,0,1-5.84,12.54c-1.89,2-3.86,4-6.5,5.09-4.35,1.75-8.8,2.79-13.51,1.64a23.71,23.71,0,0,1-5.32-3.93,37.45,37.45,0,0,1-6.54-9.36A27.39,27.39,0,0,1,111,76.06a33.67,33.67,0,0,1,7.84-16.29c2.16-2.51,4.63-4.75,7-7.11,4-4,8.53-7.25,13-10.69C140.47,40.65,142.31,39.52,144.08,38.3Zm16.59,8.81c-4.26-2.51-8.83-2.85-13.6-2.12-2.42.37-4.81.92-6.64,2.57-4,3.58-8,7.19-11.72,11A34.21,34.21,0,0,0,120.29,73c-.92,3.14-1.57,6.39-.7,9.66a63.56,63.56,0,0,0,2.58,8.28,17.92,17.92,0,0,0,4.78,7,8.19,8.19,0,0,0,3.45,2,9.62,9.62,0,0,0,7.75-1.64,17.87,17.87,0,0,0,7.35-12.57c.3-2.76.32-5.54.63-8.3.53-4.67,3.24-7.78,7.45-9.57a10.7,10.7,0,0,1,4-.54,32.75,32.75,0,0,1,4,.42c3.74.45,6.45-1.41,7-4.81.85-.5.78-1.31.72-2.11a20.66,20.66,0,0,0-4.52-11.43,16.64,16.64,0,0,0-2.45-2.2A1.21,1.21,0,0,0,160.67,47.11Z"/><path class="p" d="M108.53,93.24c-3.53-.35-7-1-9.93-3.11-4-2.89-7.14-6.51-8.44-11.36-.94-3.5-1.45-7.11-2.2-10.67q-.94-4.42-2-8.82c-.47-2-1.07-3.93-1.51-5.91a11.77,11.77,0,0,1,2.64-10.54c.15.66.31,1.32.46,2a22.64,22.64,0,0,0,2.72,7.38c.08.36.12.72.23,1.07a111.7,111.7,0,0,1,3.8,16.17,37.35,37.35,0,0,0,2,8.6c1.81,4.65,5.06,8,10.25,8.9Z"/><path class="p" d="M88.48,41.14a12.33,12.33,0,0,1,5-3.34,33.12,33.12,0,0,1,9.76-1.94c6.76-.42,13.25,1,19.69,2.8,3.38,1,6.75,1.92,10.13,2.88A26.55,26.55,0,0,0,127.16,46a1.77,1.77,0,0,1-.46.28A72.81,72.81,0,0,0,110.1,42a35.76,35.76,0,0,0-11.21.43c-3.67.68-6.58,2.34-8.25,5.81a2.42,2.42,0,0,1-.35.44A28.57,28.57,0,0,1,88.48,41.14Z"/><path class="q" d="M126.7,46.26a1.77,1.77,0,0,0,.46-.28,26.55,26.55,0,0,1,5.94-4.44c1.65-.74,3.29-1.52,5-2.2a14.48,14.48,0,0,1,2.28-.51,199,199,0,0,0-16.59,13.53c-5.4,5-10,10.51-12.65,17.51a27.85,27.85,0,0,0-2,12.11,33.76,33.76,0,0,0,9.55,20.93c.58.62,1.07,1.33,1.61,2a11.94,11.94,0,0,1-4.82-2.64,27.29,27.29,0,0,1-6.92-9c-.66-2.1-1.33-4.21-2-6.32-.07-.68-.12-1.35-.2-2a32.14,32.14,0,0,1,6.18-23.57,61.8,61.8,0,0,1,5.53-6.46C120.86,51.93,123.81,49.12,126.7,46.26Z"/><path class="n" d="M120.27,104.9c-.54-.66-1-1.37-1.61-2A33.76,33.76,0,0,1,109.11,82a27.85,27.85,0,0,1,2-12.11c2.63-7,7.25-12.51,12.65-17.51a199,199,0,0,1,16.59-13.53l0,0,.33-.14,3.45-.41c-1.77,1.22-3.61,2.35-5.3,3.67-4.42,3.44-9,6.71-13,10.69-2.35,2.36-4.82,4.6-7,7.11A33.67,33.67,0,0,0,111,76.06a27.39,27.39,0,0,0,2.63,16.88,37.45,37.45,0,0,0,6.54,9.36,23.71,23.71,0,0,0,5.32,3.93Z"/><path class="j" d="M101.51,119.13c-2.26-.1-4.27-1.94-4.19-3.84.09-2.27,2.07-4.25,4.09-4.11a4.78,4.78,0,0,1,4,4.6A3.67,3.67,0,0,1,101.51,119.13Zm-.29-6.32a3,3,0,0,0-2.33,2.52c0,1,1.54,2.28,2.74,2.31a2.21,2.21,0,0,0,2.13-2.11A3,3,0,0,0,101.22,112.81Z"/><path class="j" d="M119.72,113.05a2.37,2.37,0,0,1,2.39,2.47,2.07,2.07,0,0,1-2.06,2.3,2.74,2.74,0,0,1-2.46-2.71A2.09,2.09,0,0,1,119.72,113.05Zm1.23,2.66c-.59-.53-.81-.83-1.09-.93-.12,0-.57.44-.55.48a2.12,2.12,0,0,0,.73.83C120.19,116.17,120.54,115.89,121,115.71Z"/><path class="r" d="M88.48,41.14a28.57,28.57,0,0,0,1.81,7.56c0,1.16,0,2.32,0,3.48a22.64,22.64,0,0,1-2.72-7.38c-.15-.65-.31-1.31-.46-2C87.55,42.27,88,41.7,88.48,41.14Z"/><path class="q" d="M140.63,38.71l-.33.14A.55.55,0,0,1,140.63,38.71Z"/><path class="s" d="M168.59,62.86c-.55,3.4-3.26,5.26-7,4.81a32.75,32.75,0,0,0-4-.42,10.7,10.7,0,0,0-4,.54c-4.21,1.79-6.92,4.9-7.45,9.57-.31,2.76-.33,5.54-.63,8.3a17.87,17.87,0,0,1-7.35,12.57,9.62,9.62,0,0,1-7.75,1.64,8.19,8.19,0,0,1-3.45-2,17.92,17.92,0,0,1-4.78-7,63.56,63.56,0,0,1-2.58-8.28c-.87-3.27-.22-6.52.7-9.66a34.21,34.21,0,0,1,8.42-14.4c3.75-3.82,7.73-7.43,11.72-11,1.83-1.65,4.22-2.2,6.64-2.57,4.77-.73,9.34-.39,13.6,2.12A9.35,9.35,0,0,0,162,48.77a13.07,13.07,0,0,1,3.24,4,20,20,0,0,1,2.6,8.56A1.59,1.59,0,0,0,168.59,62.86ZM128.54,79.22h-.37V71.84c0-.19.05-.42,0-.55a9,9,0,0,0-.78-.86,4.37,4.37,0,0,0-.68.95,3.1,3.1,0,0,0,0,1.1L127,86.33a2.24,2.24,0,0,0,.09.91c.16.28.5.64.74.62s.58-.41.67-.7a4.61,4.61,0,0,0,.06-1.29Q128.54,82.56,128.54,79.22Zm7.28,1.33c-.31-2.14-.55-4-.84-5.8-.07-.49-.34-1-.95-.82a1.23,1.23,0,0,0-.54,1q.28,2.76.77,5.49c.05.33.5.59.77.89Z"/><path class="n" d="M168.59,62.86a1.59,1.59,0,0,1-.76-1.56,20,20,0,0,0-2.6-8.56,13.07,13.07,0,0,0-3.24-4,9.35,9.35,0,0,1-1.32-1.66,1.21,1.21,0,0,1,1.67,0,16.64,16.64,0,0,1,2.45,2.2,20.66,20.66,0,0,1,4.52,11.43C169.37,61.55,169.44,62.36,168.59,62.86Z"/><path class="t" d="M101.22,112.81a3,3,0,0,1,2.54,2.72,2.21,2.21,0,0,1-2.13,2.11c-1.2,0-2.77-1.36-2.74-2.31A3,3,0,0,1,101.22,112.81Z"/><path class="t" d="M121,115.71c-.41.18-.76.46-.91.38a2.12,2.12,0,0,1-.73-.83s.43-.52.55-.48C120.14,114.88,120.36,115.18,121,115.71Z"/><path class="f" d="M128.54,79.22q0,3.33,0,6.65a4.61,4.61,0,0,1-.06,1.29c-.09.29-.42.69-.67.7s-.58-.34-.74-.62a2.24,2.24,0,0,1-.09-.91l-.33-13.85a3.1,3.1,0,0,1,0-1.1,4.37,4.37,0,0,1,.68-.95,9,9,0,0,1,.78.86c.08.13,0,.36,0,.55v7.38Z"/><path class="f" d="M135.82,80.55l-.79.77c-.27-.3-.72-.56-.77-.89q-.48-2.73-.77-5.49a1.23,1.23,0,0,1,.54-1c.61-.23.88.33.95.82C135.27,76.58,135.51,78.41,135.82,80.55Z"/><path class="k" d="M103.69,193.87c.69-1.77,1.33-3.57,2.08-5.32q4-9.36,8.08-18.68a6.53,6.53,0,0,1,.72-1.05l13.8,9.86c-1.12,1.6-2.14,3.3-3.39,4.79a182.11,182.11,0,0,0-11.23,14.87,14.73,14.73,0,0,1-1.36,1.5Zm4-1.72c.88,0,1.08-.7,1.34-1.31q1.82-4.14,3.59-8.3a3.53,3.53,0,0,0,.36-1.23,1.15,1.15,0,0,0-.38-.91c-.2-.1-.62.17-.91.34s-.2.3-.28.47q-2,4.66-4,9.32C107.15,191.13,107,191.72,107.73,192.15Z"/><path class="k" d="M139.16,165c-.89,1.15-1.77,2.3-2.67,3.45-1.2,1.52-2.41,3.05-3.64,4.55a4.74,4.74,0,0,1-.85.67c-.37-.22-.76-.41-1.11-.65l-14.15-9.44q2-4.71,4-9.43c1.75.92,3.54,1.75,5.23,2.76C130.36,159.59,134.75,162.32,139.16,165Zm-7.21-.59c.26-1.93-1.45-3.33-3.58-2.56a5,5,0,0,0-1.9,1.4,3.3,3.3,0,0,0,.25,3.95,2.65,2.65,0,0,0,3.23.46A3.34,3.34,0,0,0,132,164.43Z"/><path class="m" d="M141.28,162.53l-.84,1.08a3,3,0,0,1-.42-.6c-.38-1.06-1-1.62-2.22-1.31a1.52,1.52,0,0,1-1.79-.83l2.51-1.08c-.68-1.57-1.3-3-2-4.63-2.24.55-4.32,1.06-6.39,1.6a2,2,0,0,1-2.66-1.46c-.45-1.32-1-2.61-1.45-3.91l-4.56,1,.81-1.84,3.14-.61c-.39-1.14-.7-2-1-2.94l.81-1.5c.58,1.27,1.17,2.53,1.81,3.91l6.41-1.63c-.71-1.8-1.36-3.43-2.06-5.18-1,.27-1.82.51-2.65.71s-1.67.37-2.51.55l1.29-1.86,3.31-.81-.5-1.56,1.33-.53c.32.61.35,1.66,1.36,1.42,1.88-.42,3.72-1,5.58-1.55,1,.22,2,.3,2.72,1.2-.05.29-.22.63-.13.87.59,1.53,1.24,3,1.89,4.58l3.42-.69.6,1.44c-1.09.26-2.3.17-3.3,1,.59,1.33,1.15,2.61,1.74,3.92l1.94-.14c0,.51-.08,1-.13,1.52-1.13.26-1.13.26-.58,1.33-.22.6-.45,1.2-.68,1.8-.48-.77-1-1.55-1.4-2.29a18.53,18.53,0,0,0-6.46,1.53c.49,1.16,1,2.33,1.48,3.51.32.81.88.88,1.63.68,1-.25,2-.44,3-.66l-1.24,1.86-2.31.41Zm-8.36-20.31c.64,1.63,1.16,3.06,1.78,4.44a1.21,1.21,0,0,0,1,.57c1.85-.33,3.68-.76,5.83-1.22-.74-1.73-1.32-3.2-2-4.61a1.23,1.23,0,0,0-1.06-.45C136.67,141.31,134.9,141.76,132.92,142.22Zm-5.22,8.67a10.16,10.16,0,0,0,1.75,4.42l6.47-1.63c-.68-1.57-1.24-2.89-1.88-4.39Zm14.46-3.38a33.77,33.77,0,0,0-6.47,1.58l1.75,4.28,6.59-1.5Z"/><path class="p" d="M103.69,193.87l8.7,6c-1.4,1.86-2.78,3.75-4.23,5.58a6.07,6.07,0,0,1-4,2.06c-2.06.31-3.58-.66-3.86-2.73a7.36,7.36,0,0,1,.14-3.47C101.35,198.75,102.58,196.34,103.69,193.87Z"/><path class="g" d="M121.46,152.43l4.56-1c.48,1.3,1,2.59,1.45,3.91a2,2,0,0,0,2.66,1.46c2.07-.54,4.15-1,6.39-1.6.7,1.61,1.32,3.06,2,4.63L136,160.87a1.52,1.52,0,0,0,1.79.83c1.23-.31,1.84.25,2.22,1.31a3,3,0,0,0,.42.6L139.16,165c-4.41-2.7-8.8-5.43-13.24-8.09-1.69-1-3.48-1.84-5.23-2.76C121,153.59,121.21,153,121.46,152.43Z"/><path class="k" d="M131,175.12l-1.63,2.19-14.14-10.12c.29-.66.59-1.31.89-2a8.34,8.34,0,0,1,1,.5Q124,170.4,131,175.12Z"/><path class="l" d="M126.22,143.9c.84-.18,1.68-.35,2.51-.55s1.64-.44,2.65-.71c.7,1.75,1.35,3.38,2.06,5.18L127,149.45c-.64-1.38-1.23-2.64-1.81-3.91Z"/><path class="l" d="M144.37,158.65c-1,.22-2,.41-3,.66-.75.2-1.31.13-1.63-.68-.48-1.18-1-2.35-1.48-3.51a18.53,18.53,0,0,1,6.46-1.53c.45.74.92,1.52,1.4,2.29A3.92,3.92,0,0,1,144.37,158.65Z"/><path class="n" d="M131,175.12q-6.95-4.71-13.89-9.4a8.34,8.34,0,0,0-1-.5l.66-1.62L130.89,173c.35.24.74.43,1.11.65C131.66,174.17,131.31,174.64,131,175.12Z"/><path class="g" d="M115.19,167.19l14.14,10.12-1,1.37-13.8-9.86C114.77,168.28,115,167.73,115.19,167.19Z"/><path class="g" d="M146.49,145l-3.42.69c-.65-1.55-1.3-3-1.89-4.58-.09-.24.08-.58.13-.87C143.61,141.17,145.59,142.48,146.49,145Z"/><path class="g" d="M147.47,151.23l-1.94.14c-.59-1.31-1.15-2.59-1.74-3.92,1-.87,2.21-.78,3.3-1A6.6,6.6,0,0,1,147.47,151.23Z"/><path class="i" d="M138.59,139c-1.86.53-3.7,1.13-5.58,1.55-1,.24-1-.81-1.36-1.42C134,138.29,136.25,137.59,138.59,139Z"/><path class="i" d="M124.41,147c.3.9.61,1.8,1,2.94l-3.14.61C123,149.41,123.7,148.23,124.41,147Z"/><path class="e" d="M130.32,139.67l.5,1.56-3.31.81A4.32,4.32,0,0,1,130.32,139.67Z"/><path class="e" d="M141.28,162.53l-.46-1.61,2.31-.41Z"/><path class="f" d="M146.76,154.08c-.55-1.07-.55-1.07.58-1.33C147.15,153.2,147,153.64,146.76,154.08Z"/><path class="j" d="M107.73,192.15c-.69-.43-.58-1-.32-1.62q2-4.67,4-9.32c.08-.17.14-.38.28-.47s.71-.44.91-.34a1.15,1.15,0,0,1,.38.91,3.53,3.53,0,0,1-.36,1.23q-1.77,4.16-3.59,8.3C108.81,191.45,108.61,192.16,107.73,192.15Z"/><path class="g" d="M132,164.43a3.34,3.34,0,0,1-2,3.25,2.65,2.65,0,0,1-3.23-.46,3.3,3.3,0,0,1-.25-3.95,5,5,0,0,1,1.9-1.4C130.5,161.1,132.21,162.5,132,164.43Zm-1.47.19a1.18,1.18,0,0,0-1.14-1.39,1.88,1.88,0,0,0-1.86,1.69c0,.72.18,1.38,1,1.54S130.39,165.59,130.48,164.62Z"/><path class="l" d="M132.92,142.22c2-.46,3.75-.91,5.53-1.27a1.23,1.23,0,0,1,1.06.45c.7,1.41,1.28,2.88,2,4.61-2.15.46-4,.89-5.83,1.22a1.21,1.21,0,0,1-1-.57C134.08,145.28,133.56,143.85,132.92,142.22Z"/><path class="l" d="M127.7,150.89l6.34-1.6c.64,1.5,1.2,2.82,1.88,4.39l-6.47,1.63A10.16,10.16,0,0,1,127.7,150.89Z"/><path class="g" d="M142.16,147.51l1.87,4.36-6.59,1.5-1.75-4.28A33.77,33.77,0,0,1,142.16,147.51Z"/><path class="m" d="M130.48,164.62c-.09,1-1.16,2-2,1.84s-1-.82-1-1.54a1.88,1.88,0,0,1,1.86-1.69A1.18,1.18,0,0,1,130.48,164.62Z"/><path class="p" d="M226.78,351c-.85,8.75-1.66,17.51-2.58,26.26a22.27,22.27,0,0,1-1.14,4.27,2.35,2.35,0,0,1-2.58,1.67c-1.16-.05-2.32-.28-3.47-.44a51.12,51.12,0,0,1-9-2.09c-.8-.27-1.58-.64-2.36-1a29.44,29.44,0,0,1,1.64-5.43,35.2,35.2,0,0,0,4-14.83,3.3,3.3,0,0,0,0-1.09c-.11-.3-.4-.7-.65-.73s-.63.34-.74.62a4.06,4.06,0,0,0-.15,1.27,30.6,30.6,0,0,1-3.18,12.59,26.51,26.51,0,0,0-2.5,7.11c-3.93-.75-7.88-1.43-11.79-2.26-5.37-1.14-10.71-2.39-16-3.61-1.62-.37-2.38-1.13-2.35-2.82.05-3.08.21-6.16.48-9.22.23-2.57.63-5.14,1.06-7.69.62-3.7,1.24-7.41,2.06-11.08.73-3.28,2.33-4.21,5.64-3.82,1.33.16,2.67.18,4,.26l6.29.76,6.41.71,3.75.38c.62-6.44,1.21-12.65,1.64-19l-9.64-.84c-.13.71-.27,1.24-.32,1.78-.42,3.8-.8,7.6-1.23,11.39-.15,1.34-.4,2.67-.61,4l-6-.84q.65-4.67,1.3-9.33c.33-2.38.68-4.75,1-7.06-.14-.17-.2-.32-.29-.35-2.11-.62-2.71-1.16-2.73-3.3a59.69,59.69,0,0,1,.43-6.8,3,3,0,0,1,2.65-2.7,19.32,19.32,0,0,1,3.46-.47c3.13,0,6.28.11,9.41.36,2.88.23,5.74.71,8.61,1.07a3.63,3.63,0,0,1,3.4,3.35,22.11,22.11,0,0,1-.69,9.15c-.29,1.12-1.25,1.22-2.42,1.38q-.48,9.67-.95,19.32c-1.88,5.19,3.68,12.59,10.68,10.85C223.2,352.33,225,351.62,226.78,351Zm-35.21,22.39c2.55.23,4.24-.89,5.87-2,2.34-1.53,4.45-3.39,5.4-6.13a19.33,19.33,0,0,0,.71-10.55,13.36,13.36,0,0,0-2.41-5.33,11.51,11.51,0,0,0-18-.78,15.93,15.93,0,0,0-2.31,17.61C183.22,370.75,186.72,373.48,191.57,373.42Zm17.93-52.8a47,47,0,0,0,.68-10.54l-5-.7c-.34,3.71-.65,7.22-1,10.88Zm-5.95-11.47h-4.81c-.21,3.58-.42,7-.64,10.58l4.71.36C203,316.36,203.75,312.88,203.55,309.15Zm-11.05,10,4.13.43c.23-3.68.45-7.08.68-10.61H193.1C192.9,312.31,192.71,315.6,192.5,319.15Zm-.89-10c-2.35.11-2.75.32-3,2.16a38.77,38.77,0,0,0-.39,5.49c0,1.88.72,2.33,2.87,2C191.26,315.6,191.43,312.39,191.61,309.16Zm20.24,1.43c-.25,3.43-.49,6.8-.73,10.17,1.37.05,1.46.07,1.6-.53a17.17,17.17,0,0,0,.47-8.18C213,311.4,212.8,310.76,211.85,310.59Zm-3.95,48.82-.84-1.08c-.29.34-.74.65-.83,1-.34,1.55-.61,3.12-.8,4.7,0,.36.38.77.59,1.16.33-.3.86-.55.94-.91C207.34,362.78,207.58,361.2,207.9,359.41Z"/><path class="l" d="M212,342.36c2.8.31,5.61.58,8.41.95,1.27.17,2.53.5,3.79.78,2.59.57,3.23,1.52,2.85,4.21,0,.18-.09.35-.13.53a23.47,23.47,0,0,1-3,1.69c-2.56,1-5.23,1.63-7.81.17A7.66,7.66,0,0,1,212,342.36Zm6.75,7.39a2.81,2.81,0,0,0,2.76-2.48c0-1.19-1.8-2.62-3.35-2.69a2.26,2.26,0,0,0-2.17,2.26A2.93,2.93,0,0,0,218.74,349.75Z"/><path class="m" d="M204.11,379.24a26.51,26.51,0,0,1,2.5-7.11,30.6,30.6,0,0,0,3.18-12.59,4.06,4.06,0,0,1,.15-1.27c.11-.28.51-.65.74-.62s.54.43.65.73a3.3,3.3,0,0,1,0,1.09,35.2,35.2,0,0,1-4,14.83,29.44,29.44,0,0,0-1.64,5.43Z"/><path class="m" d="M212,342.36a7.66,7.66,0,0,0,4.06,8.33c2.58,1.46,5.25.82,7.81-.17a23.47,23.47,0,0,0,3-1.69c0,.74-.09,1.47-.13,2.2-1.81.59-3.58,1.3-5.42,1.76-7,1.74-12.56-5.66-10.68-10.85Z"/><path class="i" d="M224.26,315.26c.2.18.65.41.8.77.07.17-.42.78-.73.84a43.3,43.3,0,0,1-4.53.78,1.21,1.21,0,0,1-1-.59c-.24-.61.3-.89.8-1C221.07,315.79,222.53,315.56,224.26,315.26Z"/><path class="i" d="M181,316.69c-.79-.16-1.88-.33-2.94-.63-.31-.09-.51-.57-.76-.87.32-.22.67-.66,1-.63,1.39.17,2.77.44,4.13.73.22,0,.54.5.49.66a1.46,1.46,0,0,1-.68.71A3.58,3.58,0,0,1,181,316.69Z"/><path class="m" d="M193.46,339.76l-6.29-.76c.11-.56.21-1.12.31-1.68l6,.84Z"/><path class="i" d="M199.09,298.23a9.42,9.42,0,0,1,.07,1.69.87.87,0,0,1-.55.6.89.89,0,0,1-.77-.34,6.93,6.93,0,0,1-.34-4.15c0-.17.42-.44.54-.39.3.12.72.35.79.61A14,14,0,0,1,199.09,298.23Z"/><path class="i" d="M217.2,301c-.47,1.16-.82,2.15-1.29,3.07-.15.3-.66.41-1,.6-.13-.42-.44-.88-.36-1.26a11.47,11.47,0,0,1,.91-2.6c.18-.37.67-.58,1-.86Z"/><path class="m" d="M191.57,373.42c-4.85.06-8.35-2.67-10.76-7.14a15.93,15.93,0,0,1,2.31-17.61,11.51,11.51,0,0,1,18,.78,13.36,13.36,0,0,1,2.41,5.33,19.33,19.33,0,0,1-.71,10.55c-1,2.74-3.06,4.6-5.4,6.13C195.81,372.53,194.12,373.65,191.57,373.42Zm10.88-13.49c-.17-4.18-.57-7.09-2.59-9.63-3.94-5-11-5.71-15.59-.54a14.27,14.27,0,0,0-.76,17.95,9.76,9.76,0,0,0,4.83,3.55c1.8.58,3.72,1.12,5.6.3a16.11,16.11,0,0,0,3.53-2c1.48-1.18,3.05-2.41,3.71-4.28A17.78,17.78,0,0,0,202.45,359.93Z"/><path class="j" d="M209.5,320.62l-5.27-.36c.33-3.66.64-7.17,1-10.88l5,.7A47,47,0,0,1,209.5,320.62Z"/><path class="j" d="M203.55,309.15c.2,3.73-.56,7.21-.74,10.94l-4.71-.36c.22-3.54.43-7,.64-10.58Z"/><path class="j" d="M192.5,319.15c.21-3.55.4-6.84.6-10.18h4.21c-.23,3.53-.45,6.93-.68,10.61Z"/><path class="j" d="M191.61,309.16c-.18,3.23-.35,6.44-.53,9.62-2.15.36-2.87-.09-2.87-2a38.77,38.77,0,0,1,.39-5.49C188.86,309.48,189.26,309.27,191.61,309.16Z"/><path class="j" d="M211.85,310.59c1,.17,1.18.81,1.34,1.46a17.17,17.17,0,0,1-.47,8.18c-.14.6-.23.58-1.6.53C211.36,317.39,211.6,314,211.85,310.59Z"/><path class="m" d="M207.9,359.41c-.32,1.79-.56,3.37-.94,4.91-.08.36-.61.61-.94.91-.21-.39-.63-.8-.59-1.16.19-1.58.46-3.15.8-4.7.09-.39.54-.7.83-1Z"/><path class="m" d="M218.74,349.75a2.93,2.93,0,0,1-2.76-2.91,2.26,2.26,0,0,1,2.17-2.26c1.55.07,3.33,1.5,3.35,2.69A2.81,2.81,0,0,1,218.74,349.75Zm1.41-2.24c-.54-.51-.79-.92-1.14-1a2.55,2.55,0,0,0-1.34.06,1,1,0,0,0-.06.81,2.21,2.21,0,0,0,1.11.8C219,348.21,219.45,347.85,220.15,347.51Z"/><path class="l" d="M202.45,359.93a17.78,17.78,0,0,1-1.27,5.36c-.66,1.87-2.23,3.1-3.71,4.28a16.11,16.11,0,0,1-3.53,2c-1.88.82-3.8.28-5.6-.3a9.76,9.76,0,0,1-4.83-3.55,14.27,14.27,0,0,1,.76-17.95c4.63-5.17,11.65-4.42,15.59.54C201.88,352.84,202.28,355.75,202.45,359.93Zm-12.14-9.83c-3.77-.26-5.84,1.91-6.84,4.66a10.86,10.86,0,0,0,1,9.92c1.62,2.58,3.91,4.15,7,4a8.15,8.15,0,0,0,7.12-4.83c1.44-2.86,1.15-5.69.06-8.57a6.21,6.21,0,0,0-2.29-3.05C194.5,350.92,192.54,349.89,190.31,350.1Z"/><path class="n" d="M220.15,347.51c-.7.34-1.11.7-1.43.64a2.21,2.21,0,0,1-1.11-.8,1,1,0,0,1,.06-.81,2.55,2.55,0,0,1,1.34-.06C219.36,346.59,219.61,347,220.15,347.51Z"/><path class="m" d="M190.31,350.1c2.23-.21,4.19.82,6,2.09a6.21,6.21,0,0,1,2.29,3.05c1.09,2.88,1.38,5.71-.06,8.57a8.15,8.15,0,0,1-7.12,4.83c-3.12.19-5.41-1.38-7-4a10.86,10.86,0,0,1-1-9.92C184.47,352,186.54,349.84,190.31,350.1Zm7.68,9.53c-.33-4.88-1.86-6.68-5.79-7.75-3.64-1-5.46-.13-6.72,2.26a9.33,9.33,0,0,0,.73,10.46,6,6,0,0,0,6.54,2.25A7.25,7.25,0,0,0,198,359.63Z"/><path class="p" d="M198,359.63a7.25,7.25,0,0,1-5.24,7.22,6,6,0,0,1-6.54-2.25,9.33,9.33,0,0,1-.73-10.46c1.26-2.39,3.08-3.25,6.72-2.26C196.13,353,197.66,354.75,198,359.63ZM185.87,359c0,2,.39,3.34,1.74,4.28.43.3,1,.52,1.27,0a1.23,1.23,0,0,0-.33-1.05,3.66,3.66,0,0,1-1.06-3.71c0-.24.17-.51.1-.72s-.29-.76-.52-.81a1,1,0,0,0-.82.49A7.63,7.63,0,0,0,185.87,359Z"/><path class="j" d="M185.87,359a7.63,7.63,0,0,1,.38-1.56,1,1,0,0,1,.82-.49c.23.05.43.5.52.81s-.06.48-.1.72a3.66,3.66,0,0,0,1.06,3.71,1.23,1.23,0,0,1,.33,1.05c-.31.56-.84.34-1.27,0C186.26,362.33,185.88,361,185.87,359Z"/><path class="r" d="M387.47,177.29c.79.78,1.72.37,2.61.29,2-.19,4-.55,6.05-.56a10.41,10.41,0,0,1,10.3,7.46,18.58,18.58,0,0,1-.21,11.79,28.09,28.09,0,0,1-4.25,8.36,23.7,23.7,0,0,1-9.84,7.85,15.38,15.38,0,0,1-7.68,1.56c-3.5-.35-6.7-1.28-9.27-3.95a35.19,35.19,0,0,0-4.37-3.33c-1.32-1-2.93-1-4.42-1.13-4.57-.54-7.48-3.28-9.51-7.08a18.42,18.42,0,0,1-1.69-11.31,31.48,31.48,0,0,1,4.1-11.57,17.86,17.86,0,0,1,8.1-7.83c4.88-2.19,11.76-.83,14.63,2.79a27.15,27.15,0,0,1,2.17,3.84c.45.82.56,1.94,1.78,2.11Zm-22,1.58a9.48,9.48,0,0,0,.87-1.13,8.5,8.5,0,0,1,5.06-4.32,1.13,1.13,0,0,0,.5-.21,11,11,0,0,0,.64-1c-.34-.18-.7-.53-1-.51-2.46.16-6.42,3.64-7,6C364.4,178.36,364.61,178.71,365.47,178.87Z"/><path class="i" d="M350.79,202.65c-.48.52-.64.8-.89.93a6,6,0,0,1-1.22.4,19.86,19.86,0,0,0-10.38,7,32.93,32.93,0,0,0-5.31,9.46,7.91,7.91,0,0,1-.68,1.51.87.87,0,0,1-.76.31.94.94,0,0,1-.48-.68,2.25,2.25,0,0,1,.17-1.08,32.82,32.82,0,0,1,8.52-13.43,20.66,20.66,0,0,1,8.87-4.76,3.8,3.8,0,0,1,1.26-.09A3.21,3.21,0,0,1,350.79,202.65Z"/><path class="i" d="M387.47,177.29l-1.5-.71c.2-3.92.44-7.85.58-11.78a33.27,33.27,0,0,0-.3-3.85c0-.24-.15-.52-.08-.72.14-.37.34-.89.62-1s.79.24,1,.53a2.68,2.68,0,0,1,.5,1.36A54.71,54.71,0,0,1,387.47,177.29Z"/><path class="j" d="M365.47,178.87c-.86-.16-1.07-.51-.93-1.11.55-2.4,4.51-5.88,7-6,.33,0,.69.33,1,.51a11,11,0,0,1-.64,1,1.13,1.13,0,0,1-.5.21,8.5,8.5,0,0,0-5.06,4.32A9.48,9.48,0,0,1,365.47,178.87Z"/><path class="h" d="M313.93,281.75l29.42-13.22c.71,3.1,1.33,6,2.07,8.94,1.45,5.67,3.68,11,7.55,15.47a32.48,32.48,0,0,0,4.4,3.64,20.13,20.13,0,0,0,2.34,1.79,13.51,13.51,0,0,0,3.44,1.72,32.72,32.72,0,0,0,10.42,1.27,4.54,4.54,0,0,1,.74,0,1.79,1.79,0,0,1,.44.25,2.92,2.92,0,0,1-.39.88c-1,1-1.91,1.92-2.94,2.79-2.12,1.79-4.34,3.47-6.43,5.29-3.06,2.68-6.09,5.39-9.05,8.19-1.74,1.65-3.28,3.5-5,5.21a23.61,23.61,0,0,1-2.55,2.11c-1.37,1-2.8,2-4.14,3.07a1.49,1.49,0,0,1-1.69.26c-1.07-.46-2.19-.84-3.23-1.37A54.23,54.23,0,0,1,325.24,318a16.21,16.21,0,0,1-2-2.61c-2.69-4.21-4.16-8.94-5.46-13.7-1.24-4.58-2.32-9.2-3.29-13.85A50.14,50.14,0,0,1,313.93,281.75Zm28.68,41.55a10,10,0,0,0,.92-.62c2.26-1.81,4.49-3.65,6.77-5.44q6.9-5.4,13.84-10.75a3.08,3.08,0,0,0,.83-.72,3.33,3.33,0,0,0,.22-1.12c-.39,0-.88-.15-1.16,0a21.92,21.92,0,0,0-2.18,1.69c-.91.74-1.76,1.54-2.69,2.26-5.34,4.15-10.71,8.27-16.05,12.42a5.85,5.85,0,0,0-1.17,1.16C341.6,322.69,341.92,323.27,342.61,323.3Zm15.82-19.93c-.21-.3-.36-.66-.48-.65a2.13,2.13,0,0,0-1.16.28q-6.62,4.88-13.17,9.82c-2.26,1.7-4.49,3.45-6.7,5.22-.52.41-1.47.91-.76,1.73s1.19-.13,1.69-.51q6.42-4.81,12.82-9.66c2.21-1.67,4.43-3.33,6.62-5A10.24,10.24,0,0,0,358.43,303.37Zm-5.84-2.86c-.44-.31-.73-.66-1-.64a2.59,2.59,0,0,0-1.14.53c-1.47,1-2.92,2.06-4.38,3.08q-7.26,5.07-14.53,10.14c-.52.36-1.41.76-.91,1.54s1.17.1,1.72-.22c.16-.1.31-.21.46-.32l10.73-7.52c2.57-1.79,5.15-3.58,7.71-5.39A16,16,0,0,0,352.59,300.51Zm-4.48-4.6c-.5-.27-.81-.56-1.09-.53a2.85,2.85,0,0,0-1.16.51c-1,.63-1.94,1.29-2.91,1.95l-14.82,10a2.76,2.76,0,0,0-.84.7c-.16.26-.26.78-.11.95a1.12,1.12,0,0,0,1,.15,4.5,4.5,0,0,0,1.09-.68c4-2.71,7.9-5.44,11.87-8.13C343,299.54,345,298.3,347,297A9.92,9.92,0,0,0,348.11,295.91Zm-23.24,7.85c.33-.17.83-.39,1.3-.67l17.8-10.5c.21-.13.49-.23.59-.42s.35-.75.23-.94a1,1,0,0,0-.93-.26,12.62,12.62,0,0,0-2.16,1q-8.4,5-16.79,10a2.85,2.85,0,0,0-.83.71C323.76,303.18,324.12,303.76,324.87,303.76Zm-2.67-6.58c.9-.43,1.76-.76,2.56-1.21q8.16-4.68,16.29-9.42c.55-.32,1.5-.6,1.08-1.42-.5-1-1.3-.23-1.87.1-4,2.28-8,4.61-12,6.9-2.08,1.19-4.2,2.31-6.28,3.5a1.11,1.11,0,0,0-.55.82C321.45,296.69,321.88,296.89,322.2,297.18Zm-1.29-7c.54-.23,1-.39,1.44-.62q7.83-4.12,15.67-8.28a9.29,9.29,0,0,0,1.57-1,1,1,0,0,0,.3-.91,1.18,1.18,0,0,0-.92-.36,1.86,1.86,0,0,0-.83.35c-1.31.69-2.6,1.4-3.91,2.09l-13.06,6.9a2.29,2.29,0,0,0-.76.5,1,1,0,0,0-.16.82C320.33,290,320.69,290.06,320.91,290.21Z"/><path class="e" d="M342.61,323.3c-.69,0-1-.61-.67-1.09a5.85,5.85,0,0,1,1.17-1.16c5.34-4.15,10.71-8.27,16.05-12.42.93-.72,1.78-1.52,2.69-2.26a21.92,21.92,0,0,1,2.18-1.69c.28-.18.77,0,1.16,0a3.33,3.33,0,0,1-.22,1.12,3.08,3.08,0,0,1-.83.72q-6.93,5.37-13.84,10.75c-2.28,1.79-4.51,3.63-6.77,5.44A10,10,0,0,1,342.61,323.3Z"/><path class="e" d="M358.43,303.37a10.24,10.24,0,0,1-1.14,1.21c-2.19,1.69-4.41,3.35-6.62,5q-6.41,4.83-12.82,9.66c-.5.38-1.05,1.24-1.69.51s.24-1.32.76-1.73c2.21-1.77,4.44-3.52,6.7-5.22q6.56-4.95,13.17-9.82a2.13,2.13,0,0,1,1.16-.28C358.07,302.71,358.22,303.07,358.43,303.37Z"/><path class="e" d="M352.59,300.51a16,16,0,0,1-1.32,1.2c-2.56,1.81-5.14,3.6-7.71,5.39l-10.73,7.52c-.15.11-.3.22-.46.32-.55.32-1.19,1.06-1.72.22s.39-1.18.91-1.54q7.26-5.08,14.53-10.14c1.46-1,2.91-2.07,4.38-3.08a2.59,2.59,0,0,1,1.14-.53C351.86,299.85,352.15,300.2,352.59,300.51Z"/><path class="e" d="M348.11,295.91A9.92,9.92,0,0,1,347,297c-1.94,1.3-3.92,2.54-5.86,3.86-4,2.69-7.91,5.42-11.87,8.13a4.5,4.5,0,0,1-1.09.68,1.12,1.12,0,0,1-1-.15c-.15-.17-.05-.69.11-.95a2.76,2.76,0,0,1,.84-.7l14.82-10c1-.66,1.93-1.32,2.91-1.95a2.85,2.85,0,0,1,1.16-.51C347.3,295.35,347.61,295.64,348.11,295.91Z"/><path class="e" d="M324.87,303.76c-.75,0-1.11-.58-.79-1a2.85,2.85,0,0,1,.83-.71q8.38-5,16.79-10a12.62,12.62,0,0,1,2.16-1,1,1,0,0,1,.93.26c.12.19-.07.65-.23.94s-.38.29-.59.42l-17.8,10.5C325.7,303.37,325.2,303.59,324.87,303.76Z"/><path class="e" d="M322.2,297.18c-.32-.29-.75-.49-.77-.73a1.11,1.11,0,0,1,.55-.82c2.08-1.19,4.2-2.31,6.28-3.5,4-2.29,8-4.62,12-6.9.57-.33,1.37-1.09,1.87-.1.42.82-.53,1.1-1.08,1.42q-8.15,4.72-16.29,9.42C324,296.42,323.1,296.75,322.2,297.18Z"/><path class="e" d="M320.91,290.21c-.22-.15-.58-.26-.66-.47a1,1,0,0,1,.16-.82,2.29,2.29,0,0,1,.76-.5l13.06-6.9c1.31-.69,2.6-1.4,3.91-2.09a1.86,1.86,0,0,1,.83-.35,1.18,1.18,0,0,1,.92.36,1,1,0,0,1-.3.91,9.29,9.29,0,0,1-1.57,1q-7.83,4.15-15.67,8.28C321.91,289.82,321.45,290,320.91,290.21Z"/></g></svg>