<svg xmlns="http://www.w3.org/2000/svg" xmlns:xlink="http://www.w3.org/1999/xlink" viewBox="0 0 530 400.65"><defs><style>.a{fill:#fff;opacity:0;}.b{clip-path:url(#a);}.c{fill:#f9d738;}.d{fill:#1e0a0c;}.e{fill:#fefefe;}.f{fill:#020101;}.g{fill:#030201;}.h{fill:#01bdb7;}.i{fill:#07e8b3;}.j{fill:#080605;}.k{fill:#fe9848;}.l{fill:#46c385;}.m{fill:#707375;}.n{fill:#05bab4;}.o{fill:#111c1c;}.p{fill:#080505;}.q{fill:#0c0b0b;}.r{fill:#2d2b22;}.s{fill:#ff4158;}.t{fill:#7f8184;}.u{fill:#faf8f8;}.v{fill:#f0eeee;}.w{fill:#fbfafa;}</style><clipPath id="a" transform="translate(0 0.65)"><rect class="a" width="530" height="400"/></clipPath></defs><rect class="a" y="0.65" width="530" height="400"/><g class="b"><path class="c" d="M162.92,399.35c.1-2.77.2-5.54.32-8.31a150.6,150.6,0,0,1,2.06-18,216.43,216.43,0,0,1,6.59-28.25c2.44-8,5.17-15.95,8-23.83a244.2,244.2,0,0,1,12.79-28.51c4.46-8.67,9.31-17.12,14.46-25.4,1.4-2.24,2.88-4.44,4.32-6.66a15.44,15.44,0,0,1,.24,1.64c.41,8.06.78,16.12,1.19,24.19.31,6,.58,11.94,1,17.9.39,5.41,1,10.8,1.53,16.2a5.52,5.52,0,0,1-.73,3.35c-1.2,2.15-2.36,4.33-3.44,6.55-3,6-5.84,12.1-8.74,18.16-.28.57-.89,1.35-.08,1.79s1.05-.53,1.37-1.08c.16-.26.27-.55.41-.83,1.26-2.68,2.48-5.38,3.79-8,3.81-7.73,7.25-15.67,12.42-22.66a4.07,4.07,0,0,0,.31-.67l1.69-1.88c4.46-5.09,8.87-10.22,13.42-15.24,1.93-2.14,4.14-4,6.23-6a20.08,20.08,0,0,1,1.44,1.62,34.86,34.86,0,0,0,12.58,10.93,21.86,21.86,0,0,0,12.14,2.57,13.26,13.26,0,0,0,11.84-9.41,17.38,17.38,0,0,0-1.33-13.1,40,40,0,0,0-5.58-8,12.62,12.62,0,0,1,1.63.08,20.35,20.35,0,0,1,12.89,8.27c5.93,7.83,7.21,16.67,5.32,26.09-.9,4.43-2.92,8.48-4.93,12.5q-1.12,2.22-2.23,4.44c-.31.46-.63.91-.92,1.38-2.93,4.79-5.87,9.57-8.77,14.37-4.17,6.92-8.54,13.73-12.4,20.82-4.15,7.63-7.8,15.54-11.67,23.33a3.17,3.17,0,0,0-.43,1,1.26,1.26,0,0,0,.36.89c.1.1.63-.05.77-.23a10.49,10.49,0,0,0,.91-1.6q5.49-11,10.94-22a2.71,2.71,0,0,1,2.59-1.65c5.91-.38,11.81-.79,17.71-1.32,10.5-.95,21-2,31.49-3,2.76-.25,5.53-.4,8.3-.6-1.79,6.32-3.74,12.6-5.32,19-1.51,6.12-2.64,12.35-3.92,18.53a3.64,3.64,0,0,0,0,.74Z" transform="translate(0 0.65)"/><path class="d" d="M444.77-.65a6.07,6.07,0,0,0-.43,1c-2.51,9.94-7.5,18.59-13.83,26.55a128.89,128.89,0,0,1-37.37,31.84c-4.87,2.78-9.53,5.92-14.31,8.87a1.29,1.29,0,0,1-1.1.13c-.55-.38-.26-.87.15-1.22A14.78,14.78,0,0,1,379.72,65c4.94-3,9.86-6.1,14.86-9A122.8,122.8,0,0,0,432.3,21.78,62,62,0,0,0,442.41,1.12a9.47,9.47,0,0,0,.14-1.77Z" transform="translate(0 0.65)"/><path class="e" d="M285.89,329.75q1.11-2.22,2.23-4.44c2-4,4-8.07,4.93-12.5,1.89-9.42.61-18.26-5.32-26.09a20.35,20.35,0,0,0-12.89-8.27,12.62,12.62,0,0,0-1.63-.08l-2.44-.17a21.63,21.63,0,0,0-8.67,1.56c-5.54,2-10.2,5.44-14.59,9.25-1.29,1.12-2.45,2.39-3.67,3.59l-1.29.29-.46-3.15-.17-3.69-.2-2.61-.15-3.69c-.08-1-.15-2-.22-3l-.17-3.69c-.06-.87-.13-1.74-.19-2.61-.06-1.23-.11-2.46-.16-3.69l-.22-3c-.05-1.11-.1-2.22-.14-3.33s-.15-2-.22-3c-.06-1.23-.11-2.46-.16-3.7l-.22-3c-.06-1.23-.11-2.46-.17-3.69l-.21-3-.15-3.33-.21-3c0-1.11-.09-2.22-.13-3.33s-.17-2.22-.25-3.34-.09-2.21-.14-3.32l-.22-3c0-1.24-.11-2.47-.16-3.7-.07-1-.15-2-.22-3l-.14-3.32c-.07-1-.15-2-.22-3s-.09-2.21-.14-3.32l-.24-3.34c0-1.11-.09-2.22-.14-3.33s-.14-2-.22-3c0-1.23-.11-2.46-.16-3.69-.07-1-.15-2-.22-3s-.09-2.22-.13-3.33l-.23-3c0-1.23-.11-2.47-.16-3.7-.07-1-.15-2-.22-3s-.09-2.22-.13-3.32-.17-2.23-.25-3.34-.09-2.22-.13-3.33-.15-2-.23-3-.09-2.22-.14-3.33l-.23-3.34-.14-3.32c-.08-1-.15-2-.22-3l-.16-3.69c-.08-1-.15-2-.22-3l-.15-3.33c-.07-1-.14-2-.22-3l-.16-3.69-.21-3c-.06-1.23-.11-2.47-.16-3.7l-.21-2.6,0-2.06,2.25-.3,1.11-.13,4.07-.24,1.11-.13,4.08-.24,1.11-.14,4.07-.23,1.11-.14,4.08-.24,1.11-.13,4.07-.24,1.11-.13,4.08-.24,1.11-.14,4.07-.24,1.11-.13,4.08-.24,1.11-.13,4.07-.24,1.11-.13,3.71-.21,1.48-.17,3.71-.2,1.47-.17,3.71-.2,1.48-.17,3.71-.2,1.47-.17,3.71-.21,1.11-.13,4.08-.24,1.11-.13,4.07-.24,1.11-.13,4.08-.24,1.11-.13,4.07-.25,1.11-.12,4.08-.25,1.11-.13,4.07-.24,1.11-.14,4.08-.23,1.11-.14,4.07-.23,1.11-.14,4.08-.24,1.11-.13,4.07-.23,1.11-.13,4.45-.23,1.11-.14,2.33.11.41,1.21c.05.37.1.74.14,1.11.07,1.24.15,2.47.22,3.71,0,.37.09.74.13,1.11l.26,4.07.13,1.11V131l.4.09,1.09-1.78a.23.23,0,0,0,.16-.26l.59-.85a.22.22,0,0,0,.15-.26l.57-.86a.23.23,0,0,0,.16-.27l.57-.84.58-.94.57-.9a.21.21,0,0,0,.14-.26l1-1.59a.19.19,0,0,0,.14-.24l1-1.62a.18.18,0,0,0,.14-.23l.95-1.62a.21.21,0,0,0,.14-.26l1.35-2.33a.22.22,0,0,0,.14-.26l1.71-3.08,1.27-2.45,2.31-4.6,1.11-2.32,1.11-2.5c.13-.27.25-.55.38-.83l.33-.83q1.18-2.8,2.38-5.61a1.9,1.9,0,0,0-.24-2.07c-3-3.9-4.27-8.45-5-13.19a18.63,18.63,0,0,1,1.85-10.43,3,3,0,0,1,5.16-.92,10.12,10.12,0,0,1,1.91,2.91,25.87,25.87,0,0,1,.94,20.34,2.33,2.33,0,0,0,.67,2.93c.83.74,1.55,1.61,2.43,2.27a5.46,5.46,0,0,0,8-.91,19.48,19.48,0,0,0,2.16-3.22c1.53-2.82,2.94-5.7,4.43-8.53a1.89,1.89,0,0,0-.35-2.49,13.14,13.14,0,0,1-1.52-2.09,10.32,10.32,0,0,1-1.91-6.45c.15-2.09.2-4.19.46-6.26a5.37,5.37,0,0,1,2.25-3.9c2.44-1.7,5.1-.9,6.09,1.9,1.4,4,1.26,8,.63,12.07-.19,1.21-.54,2.4-.84,3.6-.33,1.35-.26,1.53.93,2.23,1.68,1,2.6.88,3.91-.57a18.79,18.79,0,0,0,4.7-12,15.51,15.51,0,0,0-1.29-7.22c-.87-2-1.85-3.9-2.85-5.81-.87-1.68-.9-2.74.06-3.28s1.91-.07,3,1.47l1.85,2.64c.65-.72.33-1.42.44-2a19.48,19.48,0,0,1,.85-4.31c1.51-3.46,4.85-4.09,7.69-1.6.65.57,1.23,1.22,1.87,1.8a11.27,11.27,0,0,0,1.58,1.27c1.11.69,1.76.56,2.12-.7a73.53,73.53,0,0,0,1.59-7.21c.09-.48-.39-1.13-.74-1.61a43.09,43.09,0,0,1-5.18-10,15.71,15.71,0,0,1-.91-6.92,7,7,0,0,1,.45-2,3,3,0,0,1,3.73-1.92,6.6,6.6,0,0,1,3.82,2.76,13.93,13.93,0,0,1,2.64,8.15c.07,2.83,0,5.68-.17,8.51a2.33,2.33,0,0,0,1.27,2.41,5.06,5.06,0,0,0,6-.37,21.59,21.59,0,0,0,3.33-3.93,21.38,21.38,0,0,0,2.77-7,2.4,2.4,0,0,0-.66-2.49,13.93,13.93,0,0,1-4-10.79,8,8,0,0,1,.43-2.17,2.87,2.87,0,0,1,4-1.81A6,6,0,0,1,463.61,18a14.56,14.56,0,0,1,1,5.8c0,1.54,0,3.07,0,4.62,1.75.75,3.14.58,4.2-.88a17.76,17.76,0,0,0,2.21-4c1-2.47,1.66-5,2.57-7.53a25.42,25.42,0,0,1,2.07-4.53c1.62-2.62,3.75-3.1,6.51-1.72.6.3,1.19.65,1.81.92,1.79.79,2.75.59,3.78-1.06a46.39,46.39,0,0,0,2.17-4.28c.26-.54.46-1.12.7-1.72H494c-1.15,3.23-2.15,6.32-4.33,8.85A5.19,5.19,0,0,1,483.52,14c-1-.37-1.89-.9-2.84-1.34-1.17-.54-1.65-.46-2.32.65a16.43,16.43,0,0,0-1.41,3c-.89,2.5-1.67,5-2.54,7.54a25.89,25.89,0,0,1-1.27,3.08c-2.09,4.18-4.43,5.51-9.16,5.15-.17.53-.36,1.09-.52,1.66A23.65,23.65,0,0,1,458.12,44c-3,3.24-6.52,4.29-10.7,2.44a5.14,5.14,0,0,0-.75-.18c-.16.57-.29,1.13-.46,1.69a40.88,40.88,0,0,1-1.54,4.93c-1.25,2.75-3.47,3.46-6.09,1.91a30.24,30.24,0,0,1-3.72-3c-.69-.57-1.24-1.59-2.32-1.17s-1.23,1.5-1.33,2.48a23.26,23.26,0,0,0,1,9c.35,1.24.85,2.44,1.29,3.66a11.06,11.06,0,0,1,.43,1.22,1.81,1.81,0,0,1-.85,2.22,1.75,1.75,0,0,1-2.24-.75c-.23-.28-.39-.62-.85-1.34-.07.94-.14,1.48-.16,2a22,22,0,0,1-4.47,12.71c-.19.25-.38.49-.58.72-2.63,3.08-4.63,3.5-8.31,1.76-.27-.13-.55-.23-1-.4-.29.52-.55,1-.8,1.46-1.49,2.77-2.93,5.57-4.47,8.31a19.77,19.77,0,0,1-2.37,3.31,8.59,8.59,0,0,1-11.69,1.46c-1.16-.79-2.17-1.79-3.47-2.87-1.41,3.27-2.78,6.45-4.16,9.63-.51,1-1,2.07-1.55,3.1a190.44,190.44,0,0,1-16.22,27.14,3.4,3.4,0,0,0-.71,2c.44,6.71,1,13.42,1.47,20.12q.84,11.26,1.69,22.52.63,8.58,1.26,17.16c.43,5.72.89,11.44,1.31,17.16.55,7.45,1.11,14.89,1.62,22.34q.91,13.2,1.76,26.4c.18,2.83.27,5.67.47,8.5.54,8.06,1.08,16.12,1.7,24.18.54,7.14,1.18,14.26,1.78,21.39.09,1.09.17,2.17.26,3.3-.64.1-1.06.18-1.48.22l-16.4,1.56-56.58,5.39Q297.41,328.7,285.89,329.75Zm55.9-114.84.18,0c-.29-4.61-.54-9.22-.92-13.83a10.62,10.62,0,0,0-1-3.34,5.55,5.55,0,0,0-5.21-3.52c-3-.06-6,0-9.06.11-3.57.14-7.13.44-10.7.6-4.19.18-8.38.25-12.56.44q-6.66.32-13.29.77a39.59,39.59,0,0,0-4.73.67,4,4,0,0,0-3.42,3.86A32.7,32.7,0,0,0,281,206c.24,4.62.46,9.24.89,13.84a45.17,45.17,0,0,0,4.25,14.28A29,29,0,0,0,305,250.82a23.44,23.44,0,0,0,4.73.75c4.73.37,9.19-1,13.5-2.66a28.91,28.91,0,0,0,6.75-3.74c7-5.24,10.27-12.62,11.4-21C341.83,221.1,341.68,218,341.79,214.91ZM389.52,69.44c-3.44,5.63-.82,15.39,2.09,18.65C394,82.6,393.07,75.07,389.52,69.44ZM414,63.93a2,2,0,0,0-1.85,1.95,57.29,57.29,0,0,0-.35,7.17,6.24,6.24,0,0,0,2.33,4.44C415.22,72.82,415.58,68.44,414,63.93Zm26.24-39.3c-1,3.22,1,10,3.88,13.05,0-1.35,0-2.43,0-3.51a16,16,0,0,0-1-6.16A5.64,5.64,0,0,0,440.26,24.63Zm19.2-6.55c-.78,2.35.12,6,1.75,7.17C461.57,21.25,461.08,19.25,459.46,18.08Z" transform="translate(0 0.65)"/><path class="f" d="M365.85,115.77l-1.11.14c-1.24-.07-2.49-.17-3.73-.2-.24,0-.48.28-.72.43l-1.11.13a5.68,5.68,0,0,0-4.07.23l-1.11.13c-1.39-.31-2.76-.59-4.08.24l-1.11.14c-1.38-.32-2.76-.6-4.07.23l-1.11.14c-1.39-.32-2.76-.6-4.08.23l-1.11.14a5.67,5.67,0,0,0-4.07.24l-1.11.13a5.57,5.57,0,0,0-4.08.25l-1.11.12a5.56,5.56,0,0,0-4.07.25l-1.11.13a5.53,5.53,0,0,0-4.08.24l-1.11.13a5.5,5.5,0,0,0-4.07.24l-1.11.13a5.53,5.53,0,0,0-4.08.24l-1.11.13a4.38,4.38,0,0,0-3.71.21l-1.47.17a4.35,4.35,0,0,0-3.71.2l-1.48.17a4.38,4.38,0,0,0-3.71.2l-1.47.17a4.35,4.35,0,0,0-3.71.2l-1.48.17a4.31,4.31,0,0,0-3.71.21l-1.11.13c-1.38-.31-2.76-.58-4.07.24l-1.11.13c-1.38-.31-2.76-.58-4.08.24l-1.11.13c-1.38-.31-2.76-.58-4.07.24l-1.11.14c-1.38-.32-2.76-.59-4.08.24l-1.11.13c-1.38-.32-2.76-.59-4.07.24l-1.11.13a5.75,5.75,0,0,0-4.08.24l-1.11.14a5.68,5.68,0,0,0-4.07.23l-1.11.14a5.64,5.64,0,0,0-4.08.24l-1.11.13a5.61,5.61,0,0,0-4.07.24l-1.11.13c-.81-.32-1.61-.61-2.25.3l0,2.06a2.12,2.12,0,0,0,.21,2.6c.05,1.23.1,2.47.16,3.7a2.76,2.76,0,0,0,.21,3c.06,1.23.11,2.46.16,3.69a2.74,2.74,0,0,0,.22,3l.15,3.33a2.74,2.74,0,0,0,.22,3l.16,3.69a2.72,2.72,0,0,0,.22,3l.14,3.32c-.37,1.15-.63,2.29.23,3.34.05,1.11.1,2.22.14,3.33a2.72,2.72,0,0,0,.23,3c0,1.11.09,2.22.13,3.33-.36,1.14-.63,2.28.25,3.34,0,1.1.09,2.21.13,3.32a2.76,2.76,0,0,0,.22,3c.05,1.23.11,2.47.16,3.7a2.69,2.69,0,0,0,.23,3c0,1.11.08,2.22.13,3.33a2.74,2.74,0,0,0,.22,3l.16,3.69a2.7,2.7,0,0,0,.22,3c.05,1.11.1,2.22.14,3.33-.37,1.14-.63,2.28.24,3.34.05,1.11.09,2.22.14,3.32a2.74,2.74,0,0,0,.22,3l.14,3.32a2.76,2.76,0,0,0,.22,3c.05,1.23.11,2.46.16,3.7a2.7,2.7,0,0,0,.22,3c0,1.11.09,2.22.14,3.32-.37,1.15-.64,2.29.25,3.34,0,1.11.08,2.22.13,3.33a2.76,2.76,0,0,0,.21,3l.15,3.33a2.78,2.78,0,0,0,.21,3c.06,1.23.11,2.46.17,3.69a2.72,2.72,0,0,0,.22,3c0,1.24.1,2.47.16,3.7a2.68,2.68,0,0,0,.22,3c0,1.11.09,2.22.14,3.33a2.74,2.74,0,0,0,.22,3c0,1.23.1,2.46.16,3.69a2.12,2.12,0,0,0,.19,2.61l.17,3.69a2.74,2.74,0,0,0,.22,3l.15,3.69a2.14,2.14,0,0,0,.2,2.61l.17,3.69a3.39,3.39,0,0,0-.27,1c.06,1,.19,2,.3,3-2.09,2-4.3,3.89-6.23,6-4.55,5-9,10.15-13.42,15.24a8,8,0,0,1-.38-1.39q-.34-4.71-.62-9.42-.57-9.6-1.1-19.2-.75-13.29-1.49-26.59-.65-11.82-1.24-23.65c-.14-2.65-.31-5.29-.46-7.94-.43-7.14-.87-14.28-1.27-21.42-.32-5.66-.57-11.33-.89-17-.42-7.33-.9-14.65-1.32-22-.32-5.73-.58-11.46-.88-17.18-.13-2.47-.3-4.93-.41-7.39-.35-7.39-.79-14.78-1-22.17a23.19,23.19,0,0,1,7.2-17.46,75.07,75.07,0,0,1,5.83-4.8c1.46-.2,2.92-.43,4.39-.59,6.54-.74,13.09-1.51,19.64-2.18,5.7-.58,11.41-1.09,17.11-1.57,4.05-.33,8.11-.56,12.17-.83-1.17-2.71-19.82-17.71-27.71-22.3l.69-1.42a162.3,162.3,0,0,1,16.11,11.48c1,.77,1.85,1.63,2.79,2.42a6.74,6.74,0,0,0,1.05.59l0,0,.19.55,3.41,2.89c-.09-.69-.12-.93-.15-1.17-.79-5.86-1.8-11.7-2.3-17.58a104.79,104.79,0,0,1-.14-20.5c.54-4.9,1-9.82,1.77-14.68.61-3.82,1.66-7.58,2.51-11.36l1.51,0c-.65,2.57-1.51,5.1-1.92,7.71-.9,5.78-1.6,11.6-2.35,17.4a99.81,99.81,0,0,0-.09,19.4c.34,5,1.05,10,1.73,15.06.31,2.31.92,4.57,1.4,6.86,0,.24,0,.57.09.7,1.19,1.16,2.37,2.34,3.65,3.4a2.49,2.49,0,0,0,1.57.32c7.63-.46,15.27-1,22.9-1.45,2.15-.14,4.31-.23,6.46-.41,5.65-.48,11.3-1,16.95-1.49,2.39-.21,4.79-.39,7.19-.52A2,2,0,0,0,337,86.84,65.36,65.36,0,0,1,350.28,67c5.86-6.16,12.65-11.19,19.56-16.06a173.76,173.76,0,0,0,14.66-11,67.11,67.11,0,0,0,12.87-15.43c.32-.52.49-1.14.84-1.64.17-.24.59-.3.89-.44.14.31.46.67.39.92a9.47,9.47,0,0,1-.91,2A65.48,65.48,0,0,1,381.91,44c-4.77,3.61-9.69,7-14.55,10.52-6.47,4.66-12.7,9.61-18,15.62A65.3,65.3,0,0,0,339,85.82c-.27.6-.47,1.23-.79,2.06.93,0,1.59.05,2.25,0,3.5-.27,7-.64,10.51-.83,5.17-.28,10.35-.56,15.53-.61a27.14,27.14,0,0,1,12.32,2.89,16,16,0,0,1,8.36,9.44c0,.4,0,.79,0,1.19l-.38.83a2.6,2.6,0,0,0-1.11,2.5l-1.11,2.32a10,10,0,0,0-2.31,4.6L381,112.66a4.21,4.21,0,0,0-1.71,3.08.22.22,0,0,1-.14.26,2.62,2.62,0,0,0-1.35,2.33.21.21,0,0,1-.14.26c-.8.25-1,.88-.95,1.62a.18.18,0,0,1-.14.23c-.82.24-1,.88-1,1.62a.19.19,0,0,1-.14.24c-.82.22-1,.86-1,1.59a.21.21,0,0,1-.14.26l-.57.9c-.2.31-.39.63-.58.94l-.57.84a.23.23,0,0,1-.16.27l-.57.86a.22.22,0,0,1-.15.26c-.2.28-.4.56-.59.85a.23.23,0,0,1-.16.26c-1.09.41-.86-.93-1.49-1.13l-.13-1.11a5.63,5.63,0,0,0-.26-4.07c0-.37-.09-.74-.13-1.11a4.35,4.35,0,0,0-.22-3.71c0-.37-.09-.74-.14-1.11.47-.69.37-1.39-.39-1.64A2,2,0,0,0,365.85,115.77Zm-62.73-12.39c-2.12,0-3.44,1.43-3.49,3.86s1.18,3.83,3.22,3.88,4-1.5,4-3.29C306.85,105.37,305.23,103.42,303.12,103.38Zm-12.07,4.83a1.65,1.65,0,0,0-1.51-1.74,1.7,1.7,0,0,0-1.68,1.6,1.84,1.84,0,0,0,1.91,1.6C290.57,109.66,291,109.12,291.05,108.21Z" transform="translate(0 0.65)"/><path class="g" d="M285.89,329.75q11.52-1.06,23-2.14l56.58-5.39,16.4-1.56c.42,0,.84-.12,1.48-.22-.09-1.13-.17-2.21-.26-3.3-.6-7.13-1.24-14.25-1.78-21.39-.62-8.06-1.16-16.12-1.7-24.18-.2-2.83-.29-5.67-.47-8.5q-.85-13.2-1.76-26.4c-.51-7.45-1.07-14.89-1.62-22.34-.42-5.72-.88-11.44-1.31-17.16s-.84-11.44-1.26-17.16q-.84-11.26-1.69-22.52c-.5-6.7-1-13.41-1.47-20.12a3.4,3.4,0,0,1,.71-2A190.44,190.44,0,0,0,387,108.24c.52-1,1-2.06,1.55-3.1.5,2.1,1,4.19,1.51,6.42.47-.11.94-.18,1.38-.32a174.45,174.45,0,0,1,27.93-6.32c10.16-1.54,20.13-3.68,29.5-8.1a124.81,124.81,0,0,0,39.51-29.14c.7-.78,1.32-1.63,2-2.46.4-.51.86-1.07,1.51-.51s.18,1.14-.25,1.61c-1.44,1.61-2.87,3.22-4.37,4.78A123.38,123.38,0,0,1,445.14,100a97.81,97.81,0,0,1-22.71,5.88,204.32,204.32,0,0,0-28.21,6c-1.12.34-2.23.73-3.34,1.12a2.31,2.31,0,0,0-.5.35c.24,2.55.52,5.11.73,7.68.45,5.59.82,11.19,1.32,16.78.66,7.37,1.42,14.73,2.11,22.09.33,3.57.63,7.13.87,10.7q.7,10.89,1.33,21.8c.18,2.95.26,5.91.44,8.87.52,8.44,1,16.87,1.63,25.3.61,8.18,1.41,16.34,2.08,24.52.7,8.54,1.32,17.09,2,25.64.43,5.35,1,10.69,1.34,16,.44,6.52.87,13.05,1.08,19.59s.25,13.32.22,20a19,19,0,0,1-7.7,15.51,15.19,15.19,0,0,1-6.52,3c-2.78.56-5.58,1-8.37,1.51-5.17.9-10.32,1.87-15.5,2.68-8.65,1.36-17.31,2.68-26,3.9-5.37.76-10.77,1.32-16.16,2a2.43,2.43,0,0,0-.52.17c-2.77.2-5.54.35-8.3.6-10.49,1-21,2.05-31.49,3-5.9.53-11.8.94-17.71,1.32a2.71,2.71,0,0,0-2.59,1.65q-5.43,11-10.94,22a10.49,10.49,0,0,1-.91,1.6c-.14.18-.67.33-.77.23a1.26,1.26,0,0,1-.36-.89,3.17,3.17,0,0,1,.43-1c3.87-7.79,7.52-15.7,11.67-23.33,3.86-7.09,8.23-13.9,12.4-20.82,2.9-4.8,5.84-9.58,8.77-14.37C285.26,330.66,285.58,330.21,285.89,329.75Zm30,13.38a11.55,11.55,0,0,0,1.58,5.84,6.88,6.88,0,0,0,9.3,2.59,6,6,0,0,0,2.32-2.27c1.86-3.44,1.42-6.91-.44-10.2a6.9,6.9,0,0,0-6.32-3.47,5.57,5.57,0,0,0-6,4.44A28.84,28.84,0,0,0,315.85,343.13Z" transform="translate(0 0.65)"/><path class="h" d="M107.72,213.23c-3.06-2.47-6.14-4.93-9.19-7.42q-10.17-8.31-20.3-16.64c-2.6-2.13-2.6-2.22-.59-4.83l31.07-40.47c.15-.19.31-.38.46-.58,2.37-3,1.84-2.52,4.5-.7l1.16,1a3.58,3.58,0,0,0,.47.56q6.17,5.31,12.35,10.61c2.9,2.48,5.8,5,8.76,7.39,2,1.63,4.1,3.17,6.21,4.67,1.28.91,2.67,1.67,4,2.5l2.53,1.35c.92.69,0,1-.33,1.33q-11.19,11.28-22.4,22.54Q117.1,203.92,107.72,213.23Zm1.13-62.8c0-.75-.6-1.07-1.06-.71a3.5,3.5,0,0,0-.82,1q-2,3.24-3.91,6.49c-.34.57-.91,1.34-.16,1.8s1.25-.46,1.61-1c1.32-2.15,2.61-4.32,3.89-6.5A7.82,7.82,0,0,0,108.85,150.43Z" transform="translate(0 0.65)"/><path class="g" d="M96.65,27.82a51.49,51.49,0,0,1,12.25,2,104.43,104.43,0,0,1,18.9,6.94,15,15,0,0,1,5.41,4.07c2.26,2.8,2.69,6,2.1,9.45a99,99,0,0,1-4.21,15.32,26.6,26.6,0,0,1-2.49,4.94c-2.52,4.12-6.4,5.46-11,4.87-2.55-.33-5-1.08-7.57-1.65a94.13,94.13,0,0,1-18.49-5.83c-1.74-.79-3.51-1.53-5.18-2.45a6.47,6.47,0,0,1-3.65-6.62c.24-6.31,1.85-12.3,3.44-18.31a46.58,46.58,0,0,1,2.35-6,11.92,11.92,0,0,1,1-1.78C91.46,29.59,94.07,27.58,96.65,27.82ZM98.77,59l.42.29c4.93-1.83,10-3.2,15-5.28-2.74-5-6.36-9.07-9.82-13.72C102.39,46.8,100.58,52.91,98.77,59Z" transform="translate(0 0.65)"/><path class="i" d="M112.51,326c-1.45-1.76-2.89-3.53-4.36-5.27a42,42,0,0,0-12.49-10.29,28.87,28.87,0,0,0-3.78-1.5c-1.22-.44-2.46-.81-3.69-1.21-10.41-3.46-17.73-10.68-23.74-19.48a36.89,36.89,0,0,1-4.53-10.7,41.9,41.9,0,0,1-2-14.79c.52-7.43,3.73-13.27,10.18-17.28,7.41-4.6,15.18-5,23.27-2.3a13.85,13.85,0,0,1,2.65,1.3,49.79,49.79,0,0,1,13.78,12.73,53,53,0,0,1,8.66,15.84c1.88,5.73,3,11.44,1.47,17.43-.23.89-.26,1.85-.56,2.71-1.29,3.68-.68,7.33.16,10.95a73.46,73.46,0,0,0,5.14,14.44,5.68,5.68,0,0,1,.22.7C119.1,321,115.86,323.62,112.51,326Zm-6.69-16c.9.83,1.88,1.6,2.7,2.51,2.52,2.79,5,5.64,7.44,8.47.34.38.6,1.06,1.3.4a3.07,3.07,0,0,0-.14-.52A85.24,85.24,0,0,1,112,306.63a8.58,8.58,0,0,0-.48-1.18c-.58-1.36-.93-1.49-1.6-.41a7.57,7.57,0,0,1-5,3.43c-.72.16-1.48.06-2.19.22-.41.08-1,.39-1.09.69-.14.73.53.89,1.09.88C103.74,310.23,104.78,310.11,105.82,310Zm3.71-37.92c-.9-3.51-3-6.35-5.11-9.17a11.15,11.15,0,0,0-.76-1.64c-.9-1.33-1.86-2.61-2.8-3.9C96.36,251.15,90,248.15,82.63,247a21.4,21.4,0,0,0-4.58.16,1.58,1.58,0,0,0-1.54,1.12l-3.27,1.32-1.31.79c-4.22,2-6.54,5.35-7.5,9.8L64,262.38c-.71,2.43-.19,4.81.38,7.18l.29,1.74a34.15,34.15,0,0,0,4,12.16l.76,1.35a35.82,35.82,0,0,0,7.28,8.8L78,294.69c1.15,1,2.26,2.07,3.46,3A16.65,16.65,0,0,0,87.75,301l4.59,1.68c1.28.38,2.55.76,3.82,1.16a15.24,15.24,0,0,0,6.55.18,4.16,4.16,0,0,0,2.82-1.56l1.13-1a1.85,1.85,0,0,0,.44-.32,23.23,23.23,0,0,0,4.91-12l.42-3a8,8,0,0,0,.33-2,27.88,27.88,0,0,0-2.69-10.55Z" transform="translate(0 0.65)"/><path class="j" d="M220.78,316.92a4.07,4.07,0,0,1-.31.67c-5.17,7-8.61,14.93-12.42,22.66-1.31,2.65-2.53,5.35-3.79,8-.14.28-.25.57-.41.83-.32.55-.51,1.54-1.37,1.08s-.2-1.22.08-1.79c2.9-6.06,5.79-12.13,8.74-18.16,1.08-2.22,2.24-4.4,3.44-6.55a5.52,5.52,0,0,0,.73-3.35c-.55-5.4-1.14-10.79-1.53-16.2-.44-6-.71-11.93-1-17.9-.41-8.07-.78-16.13-1.19-24.19a15.44,15.44,0,0,0-.24-1.64c-.28-4-.58-8-.84-12-.62-9.41-1.29-18.83-1.8-28.25-.65-11.76-1.2-23.53-1.72-35.3-.36-8.13-.56-16.28-.92-24.41-.4-9.06-.8-18.12-.69-27.19.06-4.87,0-9.74.12-14.61a29.19,29.19,0,0,1,1.7-10.36c2.36-6,6.69-9.45,13.17-10.09-.39.39-.76.81-1.18,1.17a26.33,26.33,0,0,0-9.6,21c0,4.13.34,8.25.56,12.38q.74,13.4,1.5,26.79.54,9.6,1.09,19.21.76,13.67,1.53,27.34c.31,5.67.56,11.34.87,17,.47,8.49,1,17,1.45,25.49.15,2.52.27,5,.42,7.57.34,5.73.7,11.45,1,17.18.29,5.11.52,10.23.8,15.34q.72,12.75,1.46,25.49C220.49,315.09,220.66,316,220.78,316.92Zm-12.6-141.76c.19,3.52.4,7.45.62,11.38,0,.62-.24,1.6.71,1.63,1.11,0,.82-1,.8-1.69-.12-3.38-.29-6.76-.46-10.13-.07-1.47-.16-2.95-.35-4.41-.05-.37-.52-.69-.8-1-.27.37-.73.72-.75,1.1A25.68,25.68,0,0,0,208.18,175.16ZM209.54,165h-.08c-.09-1.6-.14-3.2-.26-4.8-.17-2.27-.35-4.54-.6-6.8-.07-.61,0-1.65-.86-1.59-1.09.07-.69,1.12-.65,1.78q.34,5.64.76,11.26a3.25,3.25,0,0,0,.32,1.23.89.89,0,0,0,.71.42c.22,0,.48-.34.59-.59A3.37,3.37,0,0,0,209.54,165Z" transform="translate(0 0.65)"/><path class="k" d="M250.74,68.58,250.05,70a5.21,5.21,0,0,0-1.36.48,39,39,0,0,1-11,5.93c-5.07,1.68-10.22,2.61-15.55,1.44a8.54,8.54,0,0,1-5-2.55,3.92,3.92,0,0,1,0-5.6c1.29-1.47,3.05-2,4.71-2.8a26.06,26.06,0,0,0,7.86.89c.55,0,1.24,0,1.28-.73s-.69-.88-1.31-.92h-.37c-2.13-.26-4.26-.53-6.4-.75a8.56,8.56,0,0,0-1.59.11c-1.44-1.49-2.88-3-4.31-4.47a3,3,0,0,1-.48-.77c-1.36-2.77-.3-4.7,2.71-5.39,2.59-.61,5.1-.14,7.64.15a8.44,8.44,0,0,0,1.25,2c1.34,1.16,2.79,2.21,4.24,3.25.59.42,1.35,1.37,2,.37.54-.81-.53-1.2-1.06-1.64-1.57-1.28-3.13-2.57-4.75-3.79a5.08,5.08,0,0,0-1.47-.48,10.19,10.19,0,0,0-.83-1.61A14.13,14.13,0,0,1,224.14,48c-.88-3.31,2.79-7.17,6.44-5.85a28.13,28.13,0,0,1,9.7,5.89c.19.77.34,1.55.58,2.3.67,2,1.38,4.06,2.08,6.1.05.17,0,.4.14.52a6.15,6.15,0,0,0,.76.68c.23-.32.59-.61.64-1a3.16,3.16,0,0,0-.18-1.45c-.81-2.31-1.67-4.61-2.5-6.92a1,1,0,0,0-1.17-.66,54.58,54.58,0,0,1-.6-5.83c0-2.62,1.85-4.74,4.05-4.64a9.17,9.17,0,0,1,5.75,2.16A11.46,11.46,0,0,1,253.57,46a37.36,37.36,0,0,1,.78,10.8,34.05,34.05,0,0,1-2.41,10A11.3,11.3,0,0,1,250.74,68.58Z" transform="translate(0 0.65)"/><path class="l" d="M276.24,87.67c-.48-2.29-1.09-4.55-1.4-6.86-.68-5-1.39-10-1.73-15.06a99.81,99.81,0,0,1,.09-19.4c.75-5.8,1.45-11.62,2.35-17.4.41-2.61,1.27-5.14,1.92-7.71a6.51,6.51,0,0,1,1.57.83,14.21,14.21,0,0,1,4.64,10.13,79.52,79.52,0,0,1-1.33,15.24q-1.23,7.92-2.41,15.87c-.55,3.65-1.1,7.3-1.59,11s-.91,7.46-1.41,11.17A14.14,14.14,0,0,1,276.24,87.67Z" transform="translate(0 0.65)"/><path class="m" d="M220.78,316.92c-.12-.92-.29-1.83-.34-2.75q-.75-12.75-1.46-25.49c-.28-5.11-.51-10.23-.8-15.34-.33-5.73-.69-11.45-1-17.18-.15-2.52-.27-5.05-.42-7.57-.48-8.5-1-17-1.45-25.49-.31-5.67-.56-11.34-.87-17q-.75-13.67-1.53-27.34-.54-9.6-1.09-19.21-.75-13.39-1.5-26.79c-.22-4.13-.52-8.25-.56-12.38a26.33,26.33,0,0,1,9.6-21c.42-.36.79-.78,1.18-1.17l0,0,.41-.22,3.55-.56a75.07,75.07,0,0,0-5.83,4.8,23.19,23.19,0,0,0-7.2,17.46c.2,7.39.64,14.78,1,22.17.11,2.46.28,4.92.41,7.39.3,5.72.56,11.45.88,17.18.42,7.32.9,14.64,1.32,22,.32,5.66.57,11.33.89,17,.4,7.14.84,14.28,1.27,21.42.15,2.65.32,5.29.46,7.94q.62,11.82,1.24,23.65.72,13.29,1.49,26.59.54,9.6,1.1,19.2.27,4.71.62,9.42a8,8,0,0,0,.38,1.39Z" transform="translate(0 0.65)"/><path class="l" d="M276,21.2c-.85,3.78-1.9,7.54-2.51,11.36-.78,4.86-1.23,9.78-1.77,14.68a104.79,104.79,0,0,0,.14,20.5c.5,5.88,1.51,11.72,2.3,17.58,0,.24.06.48.15,1.17l-3.41-2.89c-.06-.18-.12-.37-.19-.55l0,0c-.3-1.24-.53-2.5-.91-3.71a91.66,91.66,0,0,1-4.1-34.3,53.27,53.27,0,0,1,3.83-16.86,15.73,15.73,0,0,1,3.85-5.8A3.47,3.47,0,0,1,276,21.2Z" transform="translate(0 0.65)"/><path class="n" d="M131.17,139.4c1.22-.92,2.41-1.88,3.67-2.75,1.61-1.13,3.27-2.2,4.92-3.28a12.1,12.1,0,0,1,1.58-1c1-.47,1.46-.28,1.79.81,1.7,5.47,3.48,10.92,5,16.45,1.59,5.76,2.92,11.59,4.36,17.39.25,1,.42,2.05.63,3.08a2.24,2.24,0,0,1-2.37-1.07c-.36-.57-.78-1.11-1.14-1.67-1.46-2.28-2.85-4.6-4.37-6.84-3.36-4.93-6.82-9.78-10.16-14.72C133.68,143.76,132.47,141.55,131.17,139.4Z" transform="translate(0 0.65)"/><path class="o" d="M131.17,139.4c1.3,2.15,2.51,4.36,3.92,6.44,3.34,4.94,6.8,9.79,10.16,14.72,1.52,2.24,2.91,4.56,4.37,6.84.36.56.78,1.1,1.14,1.67a2.24,2.24,0,0,0,2.37,1.07c.35.54.63,1.09.2,1.72a3.43,3.43,0,0,0-3.37,1.32c-4.61,4.71-9.29,9.34-13.94,14l-27,27.07-1.31-1q9.36-9.33,18.72-18.66,11.22-11.25,22.4-22.54c.34-.34,1.25-.64.33-1.33l-1.83-1.64c-1.06-1.18-2.07-2.41-3.17-3.55-3.93-4.07-7.94-8.07-11.83-12.17-3.42-3.61-6.73-7.33-10.08-11-.9-1-1.75-2-2.73-3.15l-4.7,4.44-1.16-1q2.3-2.26,4.58-4.54c.83-.83,1.25-.86,2.2-.07.28.23.52.52.79.77s.54.48.89.79c1.37-1.19,2.71-2.34,4.05-3.48s1.65-1,2.64.3C129.58,137.39,130.38,138.39,131.17,139.4Zm14.69,25.89,1.2,1.29.33-.28-1-1.53-1-1.38a.33.33,0,0,0-.24-.19c-.35-.48-.72-.95-1-1.45-1.25-1.82-2.45-3.68-3.71-5.49-2.32-3.34-4.7-6.63-7-10-1.76-2.6-3.39-5.28-5.1-7.91a9.45,9.45,0,0,0-1-1.1c-.72.53-1.34.93-1.89,1.42-.77.69-1.48,1.44-2.38,2.33,1.69,1.92,3.25,3.81,4.94,5.58,4.68,4.89,9.42,9.73,14.14,14.59.8.82,1.65,1.61,2.48,2.42a.37.37,0,0,0,.14.28Z" transform="translate(0 0.65)"/><path class="d" d="M34.24,338.44c.08-.32.15-.55.19-.79.85-5.7,4.12-9.66,9-12.41A27.88,27.88,0,0,1,54.7,321.9c.19,0,.41-.11.55,0a9.08,9.08,0,0,1,1,.66c-.24.3-.43.74-.75.86a6.25,6.25,0,0,1-1.63.28,25.68,25.68,0,0,0-10,3.21,15.27,15.27,0,0,0-7.5,9.24c-.18.63-.24,1.3-.38,2.1,1,.1,1.88.16,2.72.27a10.26,10.26,0,0,1,7.51,4.21,6.11,6.11,0,0,1,1.15,4.55,4.57,4.57,0,0,1-5.75,4,8.27,8.27,0,0,1-5.24-3.54,12.38,12.38,0,0,1-1.92-5.16c-.1-.66-.22-1.32-.36-2.17A11,11,0,0,0,28,343.23c-3.69,3.53-4.65,7.87-3.56,12.73a12.3,12.3,0,0,0,3.88,7,1.77,1.77,0,0,1,.61.67,1.21,1.21,0,0,1,0,1c-.15.19-.63.2-.95.17a1.32,1.32,0,0,1-.61-.41c-6.64-5.93-7.56-19.63,2.89-24.56A38.41,38.41,0,0,1,34.24,338.44Zm1.64,1.61a11.84,11.84,0,0,0,1.85,6.77,6.54,6.54,0,0,0,4,2.83c2.56.61,4.5-1.07,4.08-3.67a6.11,6.11,0,0,0-1.34-3C42.26,340.5,39.34,339.84,35.88,340.05Z" transform="translate(0 0.65)"/><path class="n" d="M109,214.25l27-27.07c4.65-4.66,9.33-9.29,13.94-14a3.43,3.43,0,0,1,3.37-1.32,10.58,10.58,0,0,1-1.22,2q-7.49,7.78-15.06,15.52-11.88,12.17-23.78,24.3l-.65.66C111,215.92,110.74,215.91,109,214.25Z" transform="translate(0 0.65)"/><path class="p" d="M125.4,349.08a5.31,5.31,0,0,1-1-1c-1.21-2.1-2.36-4.24-3.53-6.37l9.85-8.71,4.66,8.09a11.5,11.5,0,0,0-6.16,3.37C127.85,345.9,126.67,347.53,125.4,349.08Z" transform="translate(0 0.65)"/><path class="p" d="M126.18,325.41l3.7,6.3L120,340.29c-.46-.84-1-1.66-1.39-2.52-.8-1.55-1.57-3.12-2.35-4.68Z" transform="translate(0 0.65)"/><path class="d" d="M484.94,30.82c-.5.72-.81,1.24-1.2,1.7-2.29,2.66-4.54,5.37-6.9,8a254.92,254.92,0,0,1-20.4,20.13,20,20,0,0,1-2.18,1.71,1,1,0,0,1-.95-.13,1,1,0,0,1,.05-1,5.7,5.7,0,0,1,1.05-1,253.06,253.06,0,0,0,23.83-23.74c1.51-1.71,2.95-3.47,4.45-5.19a3,3,0,0,1,1.11-.92C484,30.25,484.43,30.59,484.94,30.82Z" transform="translate(0 0.65)"/><path class="p" d="M112.51,326c3.35-2.42,6.59-5,10.38-6.72l2.39,4.79-9.75,7.57Q114,328.86,112.51,326Z" transform="translate(0 0.65)"/><path class="q" d="M135.78,342.56a3.21,3.21,0,0,1-1.51,3.47c-1.68,1.22-3.42,2.35-5.16,3.48a2.06,2.06,0,0,1-2.24.26C129,346.35,131.65,343.53,135.78,342.56Z" transform="translate(0 0.65)"/><path class="h" d="M120,340.29l9.85-8.58.84,1.28-9.85,8.71Z" transform="translate(0 0.65)"/><path class="d" d="M121.94,127.55c-1,.09-2,.16-2.93.3-.61.09-1.34.39-1.49-.49s.6-1,1.2-1.12a13.69,13.69,0,0,1,6-.12,15.66,15.66,0,0,1,3,.92,1.24,1.24,0,0,1,.62,1c-.09.63-.67.58-1.18.47L122,127.36Z" transform="translate(0 0.65)"/><path class="n" d="M135.78,342.56c-4.13,1-6.76,3.79-8.91,7.21l-1.47-.69c1.27-1.55,2.45-3.18,3.82-4.63a11.5,11.5,0,0,1,6.16-3.37Z" transform="translate(0 0.65)"/><path class="n" d="M115.53,331.68l9.75-7.57.9,1.3-9.89,7.68C116,332.62,115.79,332.15,115.53,331.68Z" transform="translate(0 0.65)"/><path class="d" d="M240.63,47.68a1,1,0,0,1,1.17.66c.83,2.31,1.69,4.61,2.5,6.92a3.16,3.16,0,0,1,.18,1.45c0,.35-.41.64-.64,1a6.15,6.15,0,0,1-.76-.68c-.11-.12-.09-.35-.14-.52-.7-2-1.41-4.06-2.08-6.1-.24-.75-.39-1.53-.58-2.3Z" transform="translate(0 0.65)"/><path class="r" d="M221.32,65.49a8.56,8.56,0,0,1,1.59-.11c2.14.22,4.27.49,6.4.75h.37c.62,0,1.35.07,1.31.92s-.73.7-1.28.73a26.06,26.06,0,0,1-7.86-.89C221.68,66.43,221.5,66,221.32,65.49Z" transform="translate(0 0.65)"/><path class="d" d="M227.09,54.7a5.08,5.08,0,0,1,1.47.48c1.62,1.22,3.18,2.51,4.75,3.79.53.44,1.6.83,1.06,1.64-.65,1-1.41,0-2-.37-1.45-1-2.9-2.09-4.24-3.25a8.44,8.44,0,0,1-1.25-2Z" transform="translate(0 0.65)"/><path class="r" d="M387.16,100c0-.4,0-.79,0-1.19l.3.36Z" transform="translate(0 0.65)"/><path class="j" d="M220.9,98l-.41.22Z" transform="translate(0 0.65)"/><path class="r" d="M242.12,293.77c-.11-1-.24-2-.3-3a3.39,3.39,0,0,1,.27-1l.46,3.15,1.29-.29a33.28,33.28,0,0,0,2,3.09c4.94,6.08,10.92,10.64,18.93,11.56,10.79,1.23,15.34-7.36,14.33-14.32a20.58,20.58,0,0,0-3.87-9.3c-1.38-1.89-3-3.62-4.46-5.43l2.44.17a40,40,0,0,1,5.58,8,17.38,17.38,0,0,1,1.33,13.1,13.26,13.26,0,0,1-11.84,9.41,21.86,21.86,0,0,1-12.14-2.57,34.86,34.86,0,0,1-12.58-10.93A20.08,20.08,0,0,0,242.12,293.77Z" transform="translate(0 0.65)"/><path class="s" d="M341.79,214.91c-.11,3.08,0,6.19-.37,9.23-1.13,8.41-4.42,15.79-11.4,21a28.91,28.91,0,0,1-6.75,3.74c-4.31,1.69-8.77,3-13.5,2.66a23.44,23.44,0,0,1-4.73-.75,29,29,0,0,1-18.88-16.72,45.17,45.17,0,0,1-4.25-14.28c-.43-4.6-.65-9.22-.89-13.84a32.7,32.7,0,0,1,.06-5.33,4,4,0,0,1,3.42-3.86,39.59,39.59,0,0,1,4.73-.67q6.63-.47,13.29-.77c4.18-.19,8.37-.26,12.56-.44,3.57-.16,7.13-.46,10.7-.6,3-.12,6-.17,9.06-.11a5.55,5.55,0,0,1,5.21,3.52,10.62,10.62,0,0,1,1,3.34c.38,4.61.63,9.22.92,13.83Zm-30,8.31c-.58-.48-1.12-.87-1.58-1.33-2.43-2.46-4.8-5-7.27-7.39a27.81,27.81,0,0,0-3.87-3.14,4.14,4.14,0,0,0-5.11.5c-1.19,1.26-1.27,3-.11,4.76a12.89,12.89,0,0,0,1.7,2.18c3.29,3.34,6.57,6.7,10,9.94a53.11,53.11,0,0,0,4.64,3.64,3.09,3.09,0,0,0,3.95,0,22.16,22.16,0,0,0,3.08-2.63q3.93-4.19,7.73-8.48c1.31-1.47,2.58-3,3.74-4.59,1.39-1.91,1-4-.93-5.77-1.32-1.23-2.71-1.11-4.62.45a19.6,19.6,0,0,0-1.89,1.76C318.09,216.39,315,219.69,311.76,223.22Z" transform="translate(0 0.65)"/><path class="c" d="M270.77,278.2c1.49,1.81,3.08,3.54,4.46,5.43a20.58,20.58,0,0,1,3.87,9.3c1,7-3.54,15.55-14.33,14.32-8-.92-14-5.48-18.93-11.56a33.28,33.28,0,0,1-2-3.09c1.22-1.2,2.38-2.47,3.67-3.59,4.39-3.81,9.05-7.25,14.59-9.25A21.63,21.63,0,0,1,270.77,278.2Z" transform="translate(0 0.65)"/><path class="r" d="M369.47,128.2c.63.2.4,1.54,1.49,1.13l-1.09,1.78-.4-.09Z" transform="translate(0 0.65)"/><path class="r" d="M360.29,116.14c.24-.15.48-.44.72-.43,1.24,0,2.49.13,3.73.2Z" transform="translate(0 0.65)"/><path class="r" d="M382.25,110.21a10,10,0,0,1,2.31-4.6Z" transform="translate(0 0.65)"/><path class="r" d="M262.14,123.17c1.32-.83,2.7-.56,4.08-.24Z" transform="translate(0 0.65)"/><path class="r" d="M369.08,123a5.63,5.63,0,0,1,.26,4.07Z" transform="translate(0 0.65)"/><path class="r" d="M236.22,125a5.61,5.61,0,0,1,4.07-.24Z" transform="translate(0 0.65)"/><path class="r" d="M251.77,123.91a5.75,5.75,0,0,1,4.08-.24Z" transform="translate(0 0.65)"/><path class="r" d="M246.59,124.28a5.68,5.68,0,0,1,4.07-.23Z" transform="translate(0 0.65)"/><path class="r" d="M241.4,124.66a5.64,5.64,0,0,1,4.08-.24Z" transform="translate(0 0.65)"/><path class="r" d="M267.33,122.79c1.31-.82,2.69-.55,4.07-.24Z" transform="translate(0 0.65)"/><path class="r" d="M272.51,122.42c1.32-.82,2.7-.55,4.08-.24Z" transform="translate(0 0.65)"/><path class="r" d="M277.7,122.05c1.31-.82,2.69-.55,4.07-.24Z" transform="translate(0 0.65)"/><path class="r" d="M257,123.54c1.31-.83,2.69-.56,4.07-.24Z" transform="translate(0 0.65)"/><path class="r" d="M313.63,119.48a5.5,5.5,0,0,1,4.07-.24Z" transform="translate(0 0.65)"/><path class="r" d="M318.81,119.11a5.53,5.53,0,0,1,4.08-.24Z" transform="translate(0 0.65)"/><path class="r" d="M324,118.74a5.56,5.56,0,0,1,4.07-.25Z" transform="translate(0 0.65)"/><path class="r" d="M329.18,118.37a5.57,5.57,0,0,1,4.08-.25Z" transform="translate(0 0.65)"/><path class="r" d="M334.37,118a5.67,5.67,0,0,1,4.07-.24Z" transform="translate(0 0.65)"/><path class="r" d="M339.55,117.61c1.32-.83,2.69-.55,4.08-.23Z" transform="translate(0 0.65)"/><path class="r" d="M308.44,119.85a5.53,5.53,0,0,1,4.08-.24Z" transform="translate(0 0.65)"/><path class="r" d="M349.92,116.87c1.32-.83,2.69-.55,4.08-.24Z" transform="translate(0 0.65)"/><path class="r" d="M355.11,116.5a5.68,5.68,0,0,1,4.07-.23Z" transform="translate(0 0.65)"/><path class="r" d="M344.74,117.24c1.31-.83,2.69-.55,4.07-.23Z" transform="translate(0 0.65)"/><path class="r" d="M365.85,115.77a2,2,0,0,1,2.35-.32c.76.25.86,1,.39,1.64l-.41-1.21Z" transform="translate(0 0.65)"/><path class="r" d="M298.44,120.56a4.35,4.35,0,0,1,3.71-.2Z" transform="translate(0 0.65)"/><path class="r" d="M303.62,120.19a4.38,4.38,0,0,1,3.71-.21Z" transform="translate(0 0.65)"/><path class="r" d="M368.73,118.2a4.35,4.35,0,0,1,.22,3.71C368.88,120.67,368.8,119.44,368.73,118.2Z" transform="translate(0 0.65)"/><path class="r" d="M282.88,121.68a4.31,4.31,0,0,1,3.71-.21Z" transform="translate(0 0.65)"/><path class="r" d="M288.07,121.3a4.35,4.35,0,0,1,3.71-.2Z" transform="translate(0 0.65)"/><path class="r" d="M293.25,120.93a4.38,4.38,0,0,1,3.71-.2Z" transform="translate(0 0.65)"/><path class="r" d="M234.91,163.08c-.86-1.05-.6-2.19-.23-3.34Z" transform="translate(0 0.65)"/><path class="r" d="M235.66,176.05c-.88-1.06-.61-2.2-.25-3.34C235.49,173.82,235.58,174.93,235.66,176.05Z" transform="translate(0 0.65)"/><path class="r" d="M239,234.56c-.89-1.05-.62-2.19-.25-3.34C238.83,232.34,238.91,233.45,239,234.56Z" transform="translate(0 0.65)"/><path class="r" d="M237.51,208.64c-.87-1.06-.61-2.2-.24-3.34Z" transform="translate(0 0.65)"/><path class="r" d="M236,182.34a2.76,2.76,0,0,1-.22-3C235.86,180.36,235.94,181.35,236,182.34Z" transform="translate(0 0.65)"/><path class="r" d="M236.75,195.31a2.74,2.74,0,0,1-.22-3C236.6,193.33,236.68,194.32,236.75,195.31Z" transform="translate(0 0.65)"/><path class="r" d="M236.4,189a2.69,2.69,0,0,1-.23-3Z" transform="translate(0 0.65)"/><path class="r" d="M233.79,143.45a2.74,2.74,0,0,1-.22-3C233.65,141.47,233.72,142.46,233.79,143.45Z" transform="translate(0 0.65)"/><path class="r" d="M233.41,136.79a2.76,2.76,0,0,1-.21-3Z" transform="translate(0 0.65)"/><path class="r" d="M234.54,156.42a2.72,2.72,0,0,1-.22-3C234.39,154.44,234.46,155.43,234.54,156.42Z" transform="translate(0 0.65)"/><path class="r" d="M234.16,149.75a2.74,2.74,0,0,1-.22-3C234,147.77,234.08,148.76,234.16,149.75Z" transform="translate(0 0.65)"/><path class="r" d="M239.7,247.16a2.78,2.78,0,0,1-.21-3Z" transform="translate(0 0.65)"/><path class="r" d="M239.34,240.86a2.76,2.76,0,0,1-.21-3Z" transform="translate(0 0.65)"/><path class="r" d="M235.28,169.38a2.72,2.72,0,0,1-.23-3C235.13,167.4,235.2,168.39,235.28,169.38Z" transform="translate(0 0.65)"/><path class="r" d="M241.57,279.75a2.74,2.74,0,0,1-.22-3C241.42,277.77,241.49,278.76,241.57,279.75Z" transform="translate(0 0.65)"/><path class="r" d="M238.61,227.9a2.7,2.7,0,0,1-.22-3Z" transform="translate(0 0.65)"/><path class="r" d="M240.47,260.49a2.68,2.68,0,0,1-.22-3Z" transform="translate(0 0.65)"/><path class="r" d="M240.09,253.82a2.72,2.72,0,0,1-.22-3Z" transform="translate(0 0.65)"/><path class="r" d="M379.27,115.74a4.21,4.21,0,0,1,1.71-3.08Z" transform="translate(0 0.65)"/><path class="r" d="M238.23,221.23a2.76,2.76,0,0,1-.22-3C238.08,219.25,238.16,220.24,238.23,221.23Z" transform="translate(0 0.65)"/><path class="r" d="M240.83,266.79a2.74,2.74,0,0,1-.22-3Z" transform="translate(0 0.65)"/><path class="r" d="M237.87,214.94a2.74,2.74,0,0,1-.22-3C237.72,213,237.8,213.94,237.87,214.94Z" transform="translate(0 0.65)"/><path class="r" d="M237.13,202a2.7,2.7,0,0,1-.22-3C237,200,237.06,201,237.13,202Z" transform="translate(0 0.65)"/><path class="r" d="M233,130.12a2.12,2.12,0,0,1-.21-2.6Z" transform="translate(0 0.65)"/><path class="r" d="M241.18,273.09a2.12,2.12,0,0,1-.19-2.61C241.05,271.35,241.12,272.22,241.18,273.09Z" transform="translate(0 0.65)"/><path class="r" d="M241.92,286.05a2.14,2.14,0,0,1-.2-2.61C241.79,284.31,241.86,285.18,241.92,286.05Z" transform="translate(0 0.65)"/><path class="r" d="M232.86,125.46c.64-.91,1.44-.62,2.25-.3Z" transform="translate(0 0.65)"/><path class="r" d="M385.67,103.29a2.6,2.6,0,0,1,1.11-2.5Z" transform="translate(0 0.65)"/><path class="r" d="M377.78,118.33a2.62,2.62,0,0,1,1.35-2.33Z" transform="translate(0 0.65)"/><path class="r" d="M376.69,120.21c0-.74.15-1.37.95-1.62Z" transform="translate(0 0.65)"/><path class="r" d="M374.45,123.89c0-.73.17-1.37,1-1.59Z" transform="translate(0 0.65)"/><path class="r" d="M375.58,122.06c0-.74.15-1.38,1-1.62Z" transform="translate(0 0.65)"/><path class="r" d="M371.86,128l.57-.86Z" transform="translate(0 0.65)"/><path class="r" d="M372.59,126.83l.57-.84Z" transform="translate(0 0.65)"/><path class="r" d="M373.74,125.05l.57-.9Z" transform="translate(0 0.65)"/><path class="r" d="M371.12,129.07c.19-.29.39-.57.59-.85Z" transform="translate(0 0.65)"/><path class="t" d="M303.12,103.38c2.11,0,3.73,2,3.71,4.45,0,1.79-1.9,3.35-4,3.29s-3.28-1.54-3.22-3.88S301,103.34,303.12,103.38Z" transform="translate(0 0.65)"/><path class="m" d="M291.05,108.21c0,.91-.48,1.45-1.28,1.46a1.84,1.84,0,0,1-1.91-1.6,1.7,1.7,0,0,1,1.68-1.6A1.65,1.65,0,0,1,291.05,108.21Z" transform="translate(0 0.65)"/><path class="m" d="M315.85,343.13a28.84,28.84,0,0,1,.49-3.07,5.57,5.57,0,0,1,6-4.44,6.9,6.9,0,0,1,6.32,3.47c1.86,3.29,2.3,6.76.44,10.2a6,6,0,0,1-2.32,2.27,6.88,6.88,0,0,1-9.3-2.59A11.55,11.55,0,0,1,315.85,343.13Zm12.75,1.23c-.14-.63-.34-1.84-.69-3a5.6,5.6,0,0,0-4.39-4c-3-.7-5.33.77-5.77,3.8a19.17,19.17,0,0,0-.09,3.13,7.84,7.84,0,0,0,1.88,4.89c1,1.27,2.43,1.21,3.81,1.48a3.62,3.62,0,0,0,3.22-.91C328.05,348.49,328.52,346.81,328.6,344.36Z" transform="translate(0 0.65)"/><path class="u" d="M114.83,143.62l4.7-4.44c1,1.13,1.83,2.16,2.73,3.15,3.35,3.68,6.66,7.4,10.08,11,3.89,4.1,7.9,8.1,11.83,12.17,1.1,1.14,2.11,2.37,3.17,3.55l-.7.29c-1.35-.83-2.74-1.59-4-2.5-2.11-1.5-4.2-3-6.21-4.67-3-2.41-5.86-4.91-8.76-7.39q-6.2-5.29-12.35-10.61A3.58,3.58,0,0,1,114.83,143.62Z" transform="translate(0 0.65)"/><path class="o" d="M108.85,150.43a7.82,7.82,0,0,1-.45,1c-1.28,2.18-2.57,4.35-3.89,6.5-.36.58-.71,1.59-1.61,1s-.18-1.23.16-1.8q1.93-3.26,3.91-6.49a3.5,3.5,0,0,1,.82-1C108.25,149.36,108.8,149.68,108.85,150.43Z" transform="translate(0 0.65)"/><path class="v" d="M146.64,169.35l.7-.29,1.83,1.64Z" transform="translate(0 0.65)"/><path class="u" d="M98.77,59c1.81-6.11,3.62-12.22,5.55-18.71C107.78,45,111.4,49,114.14,54c-4.93,2.08-10,3.45-15,5.28Z" transform="translate(0 0.65)"/><path class="d" d="M78,294.69l-1.26-1.08a34.35,34.35,0,0,0,4.21-3.25L75,280.93l-5.59,3.88-.76-1.35,5.5-3.92c-2.18-3.44-3.89-7-6.14-10.29l-3.31,2.05c-.09-.58-.19-1.16-.29-1.74l2.92-1.82L64,262.38l.39-2.23,4.14,6.43,10.12-6.43c-2.31-3.35-4.54-6.57-6.76-9.8l1.31-.79,6.9,9.88c3.18-1.83,6.36-3.53,9.51-5.54-.84-1.24-1.6-2.28-2.28-3.37a3.61,3.61,0,0,0-2.2-1.53,17,17,0,0,0-6.77-.41c-.67.07-1.35.29-1.89-.35a1.58,1.58,0,0,1,1.54-1.12,21.4,21.4,0,0,1,4.58-.16c7.36,1.19,13.73,4.19,18.23,10.43.94,1.29,1.9,2.57,2.8,3.9a11.15,11.15,0,0,1,.76,1.64,28.8,28.8,0,0,0-5.31,3.29l5.72,8.77,4.7-2.89.54,1.49a45.21,45.21,0,0,0-4.37,2.9c2.32,3.31,4.53,6.46,6.73,9.62l-.42,3-9.49,6.49,4.14,5.87-1.13,1-4.39-6a102,102,0,0,0-8.8,6.21L87.75,301l-6-9.15ZM83.12,291c2.46,3.71,4.58,7.45,7.46,10.87l9.68-6.78c-2.43-3.66-4.59-7.28-7.08-10.84C89.73,286.53,86.33,288.5,83.12,291Zm11.5-7.63c2.33,3.78,4.63,7.31,7,10.92,3.39-2.31,6.62-4.39,9.67-6.84l-7-10.25Zm-8.9-11.17-6.28-10.48a70.58,70.58,0,0,0-9.94,6.36c1.31,3.1,5.19,9.49,6.32,10.4Zm1.39-.73,9.78-5.91c-2.18-3.51-4.06-6.94-6.44-10.22l-9.65,5.56C83,264.51,85,267.91,87.11,271.48Zm-4.86,18.06,10.14-6.69c-2-3.15-3.9-6.13-5.86-9.23-3.51,2.19-6.91,4.12-10.14,6.54Zm21.26-13.67-5.83-8.93-9.75,5.88c2,3.17,3.77,6.2,5.91,9.2ZM94.33,253l-2.44,1.52C94.17,258,96,261.4,98.31,264.7l4.09-2.6C100,258.73,97.82,255.39,94.33,253Zm-4.45-2.47-.37.36,1.54,2.24,1.7-1.13Z" transform="translate(0 0.65)"/><path class="o" d="M111.51,305.45c-1.24,2.35-3.34,3.61-5.69,4.57-1,.09-2.08.21-3.12.24-.56,0-1.23-.15-1.09-.88.06-.3.68-.61,1.09-.69.71-.16,1.47-.06,2.19-.22a7.57,7.57,0,0,0,5-3.43C110.58,304,110.93,304.09,111.51,305.45Z" transform="translate(0 0.65)"/><path class="m" d="M208.18,175.16A25.68,25.68,0,0,1,208,172c0-.38.48-.73.75-1.1.28.35.75.67.8,1,.19,1.46.28,2.94.35,4.41.17,3.37.34,6.75.46,10.13,0,.66.31,1.72-.8,1.69-.95,0-.67-1-.71-1.63C208.58,182.61,208.37,178.68,208.18,175.16Z" transform="translate(0 0.65)"/><path class="m" d="M209.54,165a3.37,3.37,0,0,1-.07.91c-.11.25-.37.56-.59.59a.89.89,0,0,1-.71-.42,3.25,3.25,0,0,1-.32-1.23q-.4-5.62-.76-11.26c0-.66-.44-1.71.65-1.78.9-.06.79,1,.86,1.59.25,2.26.43,4.53.6,6.8.12,1.6.17,3.2.26,4.8Z" transform="translate(0 0.65)"/><path class="v" d="M144.58,163.6c-.83-.81-1.68-1.6-2.48-2.42-4.72-4.86-9.46-9.7-14.14-14.59-1.69-1.77-3.25-3.66-4.94-5.58.9-.89,1.61-1.64,2.38-2.33.55-.49,1.17-.89,1.89-1.42a9.45,9.45,0,0,1,1,1.1c1.71,2.63,3.34,5.31,5.1,7.91,2.28,3.36,4.66,6.65,7,10,1.26,1.81,2.46,3.67,3.71,5.49.33.5.7,1,1,1.45Z" transform="translate(0 0.65)"/><path class="t" d="M145.34,163.39l1,1.38-.49.52-1.14-1.41Z" transform="translate(0 0.65)"/><path class="m" d="M145.86,165.29l.49-.52,1,1.53-.33.28Z" transform="translate(0 0.65)"/><path class="v" d="M145.34,163.39l-.62.49a.37.37,0,0,1-.14-.28l.52-.4A.33.33,0,0,1,145.34,163.39Z" transform="translate(0 0.65)"/><path class="w" d="M311.76,223.22c3.28-3.53,6.33-6.83,9.41-10.11a19.6,19.6,0,0,1,1.89-1.76c1.91-1.56,3.3-1.68,4.62-.45,1.93,1.79,2.32,3.86.93,5.77-1.16,1.59-2.43,3.12-3.74,4.59q-3.81,4.29-7.73,8.48a22.16,22.16,0,0,1-3.08,2.63,3.09,3.09,0,0,1-3.95,0,53.11,53.11,0,0,1-4.64-3.64c-3.38-3.24-6.66-6.6-10-9.94a12.89,12.89,0,0,1-1.7-2.18c-1.16-1.8-1.08-3.5.11-4.76a4.14,4.14,0,0,1,5.11-.5,27.81,27.81,0,0,1,3.87,3.14c2.47,2.41,4.84,4.93,7.27,7.39C310.64,222.35,311.18,222.74,311.76,223.22Z" transform="translate(0 0.65)"/><path class="g" d="M328.6,344.36c-.08,2.45-.55,4.13-2,5.37a3.62,3.62,0,0,1-3.22.91c-1.38-.27-2.8-.21-3.81-1.48a7.84,7.84,0,0,1-1.88-4.89,19.17,19.17,0,0,1,.09-3.13c.44-3,2.79-4.5,5.77-3.8a5.6,5.6,0,0,1,4.39,4C328.26,342.52,328.46,343.73,328.6,344.36Z" transform="translate(0 0.65)"/></g></svg>