<svg width="62" height="58" viewBox="0 0 62 58" fill="none" xmlns="http://www.w3.org/2000/svg">
<path d="M28.153 57.5713L27.7704 56.7732L26.951 55.0178L26.1046 53.1827L25.2297 51.3736L12.0328 23.4701L12.0903 23.3651L12.5203 22.71L12.4926 22.6832L12.5203 22.71L12.9496 22.1077L14.2667 20.2219L16.2369 17.7897L20.0908 13.1091L21.0902 11.88L21.6609 11.2003L24.6718 10.7908L34.7167 9.46995L38.6329 10.6849L42.3813 11.8447L51.2797 18.6238L53.949 20.6681L54.7831 21.3136L55.4617 23.0936L56.0863 24.7143L56.3858 25.432L56.6298 26.0961L56.6845 26.2025L57.8796 29.2846L58.1513 29.9755L56.9571 31.0699L30.7689 55.1741L28.153 57.5713Z" fill="#05EBB5"/>
<path d="M26.9153 54.9921L26.0689 53.157L25.1941 51.348L24.5998 34.7138L24.5756 34.4228C24.5486 34.3431 24.5777 34.2642 24.6068 34.1853L24.9876 33.0008L27.8906 23.7614L27.9794 23.4189C28.1251 23.0243 28.5495 22.7921 28.969 22.9298C29.3885 23.0675 29.636 23.4673 29.4903 23.8618L29.3432 24.3621L26.468 33.6284L26.1752 34.5232L26.1953 35.1315L26.9153 54.9921Z" fill="black"/>
<path d="M28.1427 57.571L27.76 56.7728L43.2833 34.3472L43.9132 33.4566L43.6122 32.8446L39.2656 23.7716L39.0472 23.2928C38.8836 22.9205 39.03 22.473 39.4538 22.2935C39.8491 22.1401 40.3248 22.2786 40.5162 22.6777L40.7617 23.2362L45.2726 32.6286L45.5458 33.2139C45.6553 33.4268 45.6234 33.7172 45.5082 33.9272L45.3646 34.1633L30.8436 55.148L28.1427 57.571Z" fill="black"/>
<path d="M28.1857 24.1314C28.158 24.1046 28.1303 24.0778 28.1025 24.051L20.0771 12.9768C19.829 12.63 19.9191 12.1819 20.2873 11.9489C20.6555 11.7159 21.1317 11.8015 21.3799 12.1484L29.1572 22.8757L39.4712 22.2987L45.506 18.2822C45.8741 18.0492 46.3504 18.1348 46.627 18.4556C46.8751 18.8024 46.785 19.2505 46.4445 19.5103L40.2114 23.6564C40.07 23.7338 39.957 23.7851 39.7885 23.7829L28.7999 24.4038C28.5476 24.374 28.3521 24.2922 28.1857 24.1314Z" fill="black"/>
<path d="M56.9553 31.066L45.2875 34.1886L45.0053 34.2906C44.9491 34.2899 44.8645 34.3152 44.8084 34.3145L43.263 34.3733L26.2066 35.1253L25.4197 35.1677C25.195 35.1647 24.9711 35.1089 24.8325 34.9749L24.6106 34.7605L12.0954 23.4153L12.5253 22.7603L12.4976 22.7335L12.5253 22.7603L12.9545 22.1581C12.9822 22.1849 13.01 22.2117 13.0377 22.2385L24.97 33.0738L25.6639 33.6909L26.4508 33.6485L43.5634 32.8972L44.6311 32.8585L45.1948 32.7074L57.8492 29.3071L58.1208 29.9978L56.9553 31.066Z" fill="black"/>
</svg>
