<svg xmlns="http://www.w3.org/2000/svg" viewBox="0 0 85 85"><defs><style>.a{fill:none;}.b{fill:#ef4056;}.c{fill:#231f20;}</style></defs><rect class="a" width="85" height="85"/><path class="b" d="M19.13,20.13s-5.68.27-3.88,7.25c1.4,5.45,3.16,7.77,5.72,10.25s11.36,6.52,15.41,8.79,13,11.2,18.65,12.94,8.76,1.28,9.19.8L68.15,46s-1.91-3.86-4.3-5.48a47.85,47.85,0,0,0-6.14-3.24s2.36-.63,2.95-2.12-.09-2.62-1-3.85-.77-1.83-1.79-1.73-10.23,1.4-18.35-.19a51.31,51.31,0,0,1-14.78-5.07C21.19,22.39,23.35,24,19.13,20.13Z"/><path class="c" d="M58.47,66.68a23.27,23.27,0,0,1-11-3.34,97.41,97.41,0,0,1-7.86-5.91c-5-3.93-10.56-8.39-14-9.86-4.8-2.07-13.06-8.62-15.45-15a9,9,0,0,1,.08-7.26c1.49-3.09,3.4-5,5.66-5.61a6.51,6.51,0,0,1,5,.68,1.07,1.07,0,1,1-1.17,1.8,4.33,4.33,0,0,0-3.27-.41c-1.64.47-3.08,2-4.28,4.47a7,7,0,0,0,0,5.58c2.27,6.08,10.39,12.14,14.3,13.83,3.66,1.58,9.39,6.14,14.44,10.15,3,2.42,5.92,4.71,7.64,5.76,4.41,2.7,9.82,3.39,11.3,2.86,1.8-.64,3.39-2.25,3.62-3.65a1.83,1.83,0,0,0-.78-1.83A1.07,1.07,0,1,1,64,57.21a4,4,0,0,1,1.58,3.85c-.36,2.18-2.47,4.42-5,5.33A6.54,6.54,0,0,1,58.47,66.68Z"/><path class="c" d="M46.46,43.23a1.07,1.07,0,0,1-.47-2c1.54-.76,1.48-4.85.39-8a26.08,26.08,0,0,0-3.19-5.53,1.07,1.07,0,1,1,1.72-1.28,28.17,28.17,0,0,1,3.5,6.11c1.12,3.27,1.72,9-1.47,10.61A1,1,0,0,1,46.46,43.23Z"/><path class="c" d="M39.07,38.84,38,37l0,0c.06,0,1.47-1,.11-4.46-1.57-4-3.18-5.2-3.19-5.21a1.06,1.06,0,0,1-.29-1.48,1.09,1.09,0,0,1,1.5-.29c.21.15,2.15,1.56,4,6.2C42.18,37,39.2,38.77,39.07,38.84Z"/><path class="c" d="M65.86,47.13c-2.33,0-6-1.41-8.81-4.58-1.3-1.46-1.76-2.86-1.38-4.16.6-2.07,3.12-2.84,3.4-2.92a1.07,1.07,0,0,1,1.14,1.69,26,26,0,0,1,8.16,5.78c.31.4,1.28,1.64.74,2.83s-2,1.3-3,1.35Zm-8.1-8.24s0,.07,0,.11c-.19.67.4,1.53.93,2.12C61,43.77,64.14,45.07,66,45a5,5,0,0,0,1-.14,3.36,3.36,0,0,0-.38-.58c-1.19-1.53-6-4.84-7.38-5.14A8.92,8.92,0,0,0,57.76,38.89Zm.08,0Zm0,0Zm0,0Z"/><path class="c" d="M70.75,49a3.76,3.76,0,0,1-3.46-1.71,1.07,1.07,0,1,1,1.81-1.15c.36.57.87.84,2.49.67.76-.08,2.11-.36,2.49-1.27a.65.65,0,0,0,0-.5A2.65,2.65,0,0,0,72.6,44c-.89-.33-3.1.64-4.32,1.4A1.08,1.08,0,0,1,66.8,45a1.06,1.06,0,0,1,.35-1.47c.65-.41,4-2.4,6.2-1.59a4.46,4.46,0,0,1,2.7,2.22,2.69,2.69,0,0,1,0,2.17c-.6,1.44-2.11,2.35-4.24,2.58A9.46,9.46,0,0,1,70.75,49Z"/></svg>