<svg xmlns="http://www.w3.org/2000/svg" viewBox="0 0 85 85"><defs><style>.a{fill:none;}.b{fill:#231f20;}.c{fill:#fcb643;}</style></defs><rect class="a" width="85" height="85"/><path class="b" d="M38.46,50.47a1.16,1.16,0,0,1-.7-.24L26.69,41.72a1.14,1.14,0,0,1-.44-.8,1.15,1.15,0,0,1,.27-.87l19.22-22a1.14,1.14,0,1,1,1.72,1.51l-18.4,21,10.1,7.77a1.15,1.15,0,0,1-.7,2.06Z"/><path class="b" d="M29.22,39.87a1.15,1.15,0,0,1-.66-.21l-5.47-3.82a1.15,1.15,0,0,1,0-1.85L46.18,16.27a1.15,1.15,0,1,1,1.4,1.82L25.69,34.86l4.19,2.92a1.15,1.15,0,0,1-.66,2.09Z"/><path class="b" d="M25.58,34.64a1.13,1.13,0,0,1-.8-.33l-5.64-5.56a1.11,1.11,0,0,1-.33-1,1.18,1.18,0,0,1,.68-.85L48.06,14.52a1.14,1.14,0,0,1,1.51.59,1.15,1.15,0,0,1-.6,1.51L22,28.31l4.43,4.37a1.14,1.14,0,0,1,0,1.62A1.13,1.13,0,0,1,25.58,34.64Z"/><path class="b" d="M23.42,27.58a1.12,1.12,0,0,1-.71-.25L17.29,23a1.14,1.14,0,0,1,.47-2l33.51-7.1a1.15,1.15,0,0,1,.48,2.24l-31.12,6.6,3.5,2.77a1.15,1.15,0,0,1-.71,2Z"/><path class="c" d="M61.26,74,35.93,52a4,4,0,0,1-1.12-4.36l12-32.16L21.56,20.66A2.12,2.12,0,0,1,19,18.25a1.58,1.58,0,0,1,1.31-1.32l25.22-4.16a3.26,3.26,0,0,1,2.28-2.32,4.55,4.55,0,0,1,1-.15A7.21,7.21,0,0,1,54,12.23l2.27,2.06A176.57,176.57,0,0,1,75.7,35a2.41,2.41,0,0,1,.49,1.89l-.53,3.15a2.38,2.38,0,0,1-1.31,1.76l-.95.46L64,73.21A1.72,1.72,0,0,1,61.26,74Z"/><path class="b" d="M45.76,42.61a1.16,1.16,0,0,1-.51-.12A1.14,1.14,0,0,1,44.73,41l6.7-13.61a1.15,1.15,0,0,1,2.06,1L46.79,42A1.14,1.14,0,0,1,45.76,42.61Z"/><path class="b" d="M53.41,43.88a1.15,1.15,0,0,1-1-1.72l4.83-8.44a1.13,1.13,0,0,1,1.56-.42,1.14,1.14,0,0,1,.43,1.56L54.41,43.3A1.15,1.15,0,0,1,53.41,43.88Z"/><path class="b" d="M74.51,43.61a1.15,1.15,0,0,1-.85-.37L51.92,19.62a1.15,1.15,0,1,1,1.69-1.55L75.35,41.69a1.14,1.14,0,0,1-.84,1.92Z"/><path class="b" d="M20.46,55.86h-.19a15,15,0,0,1-5.7-2.54c-2.63-1.89-5.9-5.54-6.5-12.16a1.14,1.14,0,1,1,2.28-.21c1,10.92,9.92,12.58,10.3,12.64a1.16,1.16,0,0,1,.94,1.33A1.15,1.15,0,0,1,20.46,55.86Z"/></svg>